<?xml version="1.0" encoding="utf-8"?><svg viewBox="0 0 282 327" xmlns="http://www.w3.org/2000/svg" xmlns:xlink="http://www.w3.org/1999/xlink"><style>:root>svg{display:none}:root>svg:target{display:block}</style><svg fill="none" viewBox="0 0 86 158" id="catalog--hand" xmlns="http://www.w3.org/2000/svg"><path d="M69.082 158c-9.472 0-41.757-1.864-44.258-2.545-.153-.431-.315-.861-.477-1.299 0 0-1.403-3.683-1.682-4.43l-.98-2.626c-.576-1.555-1.17-3.17-1.781-4.746-.387-.997-.81-1.999-1.224-2.976-.207-.498-.8-1.899-.8-1.899-.243-.586-.486-1.171-.702-1.75-.378-1.017-.747-2.034-1.116-3.05a221.578 221.578 0 00-2.23-5.938c-.81-2.04-1.53-4.14-2.231-6.167-.423-1.225-.855-2.491-1.305-3.737-.377-1.043-.827-2.08-1.259-3.083a74.086 74.086 0 01-.81-1.906A108.975 108.975 0 013.64 97.892c-.666-2.62-1.035-5.023-1.125-7.366-.054-1.373-.09-2.753-.126-4.127l-.009-.249c-.045-1.71-.098-3.454-.161-5.164a332.919 332.919 0 00-.46-8.94c-.062-.943-.18-1.9-.287-2.828-.081-.673-.162-1.306-.225-1.94-.09-1.002-.162-2.019-.234-3.002l-.225-2.982c-.135-1.69-.26-3.407-.342-5.09-.17-3.521-.27-6.625-.323-9.48-.036-2.201-.01-4.591.09-7.311.045-1.347.143-2.713.242-4.04.054-.74.108-1.474.153-2.215.027-.397.036-.794.054-1.192.018-.525.036-.969.063-1.413.018-.303.063-.613.1-.91.026-.228.062-.457.08-.68l.324-3.379c.135-1.454.477-2.605 1.07-3.622.522-.895 1.134-1.387 1.962-1.596a7.463 7.463 0 011.763-.235c.854 0 1.637.202 2.311.599 1.35.794 2.222 1.878 2.582 3.225l.243.875c.225.774.44 1.542.567 2.303.252 1.595.386 3.009.422 4.322.028 1.192.207 2.376.378 3.514.063.404.126.808.18 1.219.1.72.18 1.434.261 2.154.108.943.225 1.92.369 2.875.216 1.468.477 2.949.729 4.383l.368 2.148c.216 1.239.432 2.518.675 3.77.315 1.622.675 3.346 1.133 5.433a.615.615 0 01-.116.552c-.873 1.239-1.413 2.565-1.61 3.959-.235 1.622-.243 3.32-.055 5.184l.09.942c.1 1.037.207 2.115.405 3.172.243 1.279.53 2.571.819 3.824.26 1.164.503 2.262.72 3.352.476 2.404 1.214 4.794 1.924 7.11.27.868.531 1.724.783 2.579.504 1.71.953 3.09 1.43 4.329.27.693.63 1.36.99 2.006.126.222.252.451.369.673.63 1.192 1.439 2.579 2.671 3.831 1.394 1.414 3.194 2.289 5.344 2.585.45.061.908.095 1.358.095 1.106 0 2.213-.182 3.274-.546 1.179-.404 2.321-.875 3.418-1.34.216-.094.306-.1.36-.1.054 0 .126.013.207.047.936.356 2.015.579 3.4.7.333.027.666.04.99.04 1.916 0 3.724-.491 5.532-1.501 2.096-1.172 3.418-2.74 4.066-4.794.144-.464.297-.929.459-1.393.207-.626.387-1.152.548-1.677.037-.1.063-.202.081-.31.261.283.522.56.792.842.54.572 1.08 1.145 1.583 1.717.89 1.017 1.584 2 2.114 3.003.477.895 1.206 1.67 1.916 2.376.225.216.432.445.648.667.603.64 1.214 1.286 2.042 1.818.072.06.126.101.189.127 0 0 2.708 1.556 3.643 2.088.234.128.486.255.791.289.082.014.171.014.27.014.243 0 .585-.041.828-.216.189-.135.279-.31.27-.491-.01-.216-.171-.424-.45-.6l-.783-.491c-.701-.438-1.42-.889-2.15-1.306-.764-.438-1.556-.93-2.14-1.555l-.666-.707c-.62-.667-1.196-1.273-1.736-1.879-.162-.175-.279-.37-.405-.579-.08-.12-.153-.242-.234-.363l-.521-.768c-.504-.754-1.008-1.508-1.566-2.195-.377-.47-.836-.929-1.232-1.333a20.446 20.446 0 01-.98-1.043c-.738-.855-1.44-1.677-1.962-2.532-1.232-2.026-3.256-3.42-6.206-4.268-3.446-.99-7.098-2.08-10.462-3.602-1.188-.539-2.096-1.017-2.87-1.522-2.96-1.932-5.289-3.904-7.133-6.039a8.93 8.93 0 01-1.601-2.706c-.225-.593-.19-1.246.126-2.047.323-.828.863-1.622 1.69-2.47l.226.134c.476.242.926.471 1.358.727 2.258 1.36 4.813 2.437 7.061 3.393 1.16.492 2.465.963 3.86 1.4.557.176 1.133.27 1.7.357.27.048.54.088.8.142.126.027.261.04.387.04.522 0 .953-.242 1.106-.633.441-1.09.855-2.181 1.242-3.198a4.82 4.82 0 00.153-.505c1.583.317 3.202.526 4.84.613.998.054 3.21.182 3.21.182 1.305.074 2.636.155 3.959.215 1.898.095 3.499.633 4.911 1.65 1.538 1.11 2.924 2.43 4.237 4.046.342.424.684.855 1.025 1.286a84.66 84.66 0 001.845 2.29c.836.975 1.709 1.904 2.59 2.753.585.565 1.269 1.063 1.925 1.548l.252.189c.585.43 1.206.855 1.907 1.292.729.458 1.412 1.01 2.213 1.798l.144.141c1.385 1.36 2.816 2.767 3.985 4.269 1.151 1.488 1.745 3.077 2.168 4.437.459 1.487.369 3.023.288 4.51l-.054.95a26.904 26.904 0 01-.972 6.086l-.099.283c-.315 1.124-.647 2.289-1.061 3.413-.53 1.468-1.098 2.956-1.637 4.39-.72 1.905-1.422 3.77-2.078 5.608-.378 1.05-.657 2.128-.927 3.164 0 0-.252.957-.369 1.36l-.459 1.61a117.917 117.917 0 00-1.097 3.998c-.36 1.421-.692 2.876-1.016 4.282l-.504 2.175-.468 1.946c-.315 1.306-.639 2.612-.908 3.912-.243 1.157-.441 2.336-.639 3.48l-.288 1.697c-.054.276-.099.518-.162.734-.225.842-.423 1.676-.432 2.558 0 .309-.08.646-.153.97l-.054.222c-.458 2.12-.62 4.369-.494 7.062.009.162 0 .316-.01.465-.224.026-.755.06-1.933.06z" fill="#000"/><path d="M73.31 77.957a18.675 18.675 0 01-1.152-1.111c-.72-.768-1.656-1.791-2.456-2.855-1.305-1.724-2.843-3.366-4.192-4.814-1.448-1.548-3.149-2.531-5.2-3.03-1.097-.262-2.293-.43-3.76-.531h-.017v-.121c-.01-.532-.019-.936.008-1.354.117-1.589-.026-3.285-.45-5.345-.242-1.185-.377-2.27-.395-3.306-.054-3.185.08-6.639.405-10.564.054-.632.045-1.285.036-1.912-.01-.377-.01-.74-.01-1.104a53.81 53.81 0 01.055-1.703s.36-11.351.377-12.274c.027-.969.046-1.932.064-2.901.035-2.013.08-4.094.197-6.134.144-2.545.441-4.477.954-6.254.063-.216.09-.431.117-.646a3.41 3.41 0 01.072-.478c.153-.674.288-1.354.422-2.027.333-1.663.675-3.38 1.269-5.023.288-.794.648-1.535 1.08-2.201.764-1.172 2.14-1.912 4.092-2.188.441-.047.918-.081 1.422-.081.161 0 .323.007.485.013 1.152.048 2.006.458 2.708 1.293a8.695 8.695 0 011.196 1.905c1.16 2.559 1.287 5.205 1.323 7.911.009.835.018 1.677.018 2.511.009 1.839.018 3.737.099 5.602.063 1.44.216 2.875.368 4.268.063.539.117 1.078.171 1.616.045.411.09.815.144 1.226.1.787.19 1.521.225 2.242.18 3.453.405 7.991.513 12.529a84.557 84.557 0 01-.009 3.373v.121c-.01.889-.027 1.804-.018 2.713.009.91-.081 1.838-.171 2.74-.054.586-.117 1.185-.153 1.778-.045.841-.063 1.697-.08 2.518-.019.62-.028 1.245-.055 1.865l-.108 2.302c-.054.976-.108 1.98-.135 2.97l-.036 1.03c-.08 2.255-.162 4.584.036 6.893.036.37.045.748.063 1.118.018.317.027.593.045.869l.432 6.55zM31.742 99.319c-.936 0-1.916-.141-3.023-.431-.737-.195-1.403-.586-2.032-1.198-1.17-1.131-1.952-2.417-2.654-3.636a25.647 25.647 0 01-2.528-6.093c-.342-1.239-.72-2.498-1.08-3.71-.395-1.32-.8-2.686-1.16-4.032-.27-.997-.476-2.02-.683-3.003-.117-.552-.225-1.09-.342-1.63-.135-.599-.279-1.204-.432-1.804-.288-1.178-.585-2.397-.782-3.588-.55-3.3-.621-6.012-.216-8.524.189-1.191.422-2.174.962-3.103.558-.97 1.44-1.684 2.627-2.121.45-.168 1.034-.222 1.43-.242.558-.034 1.07-.054 1.565-.054 1.754 0 3.248.229 4.57.7.783.276 1.367.6 1.8.996.89.815 1.681 1.556 2.392 2.343.35.39.522.855.665 1.36a7.537 7.537 0 00-1.448-.141c-.99 0-1.997.195-3.058.599-2.213.835-3.608 2.222-4.264 4.242-.18.552-.369 1.212-.423 1.878-.08.929.279 1.79.684 2.66.845 1.817 2.438 3.265 3.985 4.665a36.956 36.956 0 005.38 4.046c.116.068.16.121.152.31l-.009.168c-.063 1.4-.126 2.848-.17 4.275-.037.97-.055 1.946-.073 2.916l-.027 1.306-6.9 1.124c-.62.101-1.25.202-1.861.323-.873.175-1.25.66-1.026 1.34a13.761 13.761 0 001.547 3.272c.765 1.178 1.862 2.195 3.338 3.104 1.205.74 2.581.841 3.778.841l.477-.006c.206-.007.413-.02.62-.034.162-.013.324-.027.495-.027.873-.027 1.637-.242 2.294-.478l.189.128c-.396.202-.81.357-1.215.512-.189.074-.378.141-.567.215a8.419 8.419 0 01-2.977.532zM54.05 65.548c-.737-.04-1.439-.074-2.15-.094-3.004-.088-5.927-.754-8.752-1.394l-.477-.108c-1.754-.397-3.508-.8-5.253-1.205l-2.024-.464c-.216-.525-.252-.936-.117-1.34a17.424 17.424 0 012.438-4.86c.764-1.071 1.88-1.832 3.4-2.337a13.692 13.692 0 014.345-.694c1.412 0 2.87.196 4.453.606.81.209 1.385.66 2.042 1.178l.252.203c1.07.834 1.376 1.938 1.619 3.103.234 1.098.404 2.215.575 3.3l.108.693c.045.282.063.599.054.99-.018.66-.045 1.319-.08 2.012l-.019.438-.413-.027z" fill="#000"/><path d="M42.356 98.275c-1.16 0-2.204-.249-3.175-.76-1.88-.99-2.96-2.39-3.302-4.282-.216-1.206-.216-2.438-.216-3.636 0-.64 0-1.28-.036-1.919-.054-1.225.045-2.477.144-3.683.063-.76.126-1.521.153-2.275.01-.344.01-.694.01-1.064l.233.108c.792.35 1.53.673 2.276.983 2.77 1.138 5.154 2.006 7.763 2.565 1.034.222 2.366.559 3.463 1.212.567.336.98.686 1.26 1.063l.728.963c.261.357.351.667.297 1.003a18.258 18.258 0 01-1.115 3.932c-.171.411-.378.822-.585 1.219-.198.37-.387.74-.549 1.118-.494 1.13-1.664 1.891-2.851 2.538-1.089.592-2.42.76-3.688.875-.28.034-.55.04-.81.04zm-4.965-5.925c-.01.29-.018.566.026.842l.036.222c.081.552.171 1.125.441 1.67.468.943 1.323 1.575 2.483 1.818.513.108.98.209 1.457.209l1.233.006c.584 0 1.277-.013 1.979-.114 1.241-.182 2.24-.801 3.049-1.885a7.298 7.298 0 001.421-3.495c.135-1.036.288-2.08.423-3.002.117-.754-.18-1.064-1.151-1.219-3.203-.518-6.432-.788-9.742-1.037-.126-.013-.243-.013-.342-.013-.936 0-1.089.545-1.17.841-.224.835-.117 3.777-.161 4.195l.018.962zM42.122 68.996c-.522-.122-.918-.21-1.295-.31-1.485-.39-2.843-.963-4.327-1.616l-1.062-.458c-.962-.417-1.934-.835-2.87-1.279a99.902 99.902 0 01-2.85-1.44l-.613-.317c.666-.317 1.215-.465 1.782-.492.09-.006.189-.006.287-.006.738 0 1.494.127 2.312.397 1.026.337 2.096.606 3.122.862l.53.134c1.548.39 3.104.775 4.678 1.165l1.484.37-1.178 2.99zM32.524 96.727c-1.52-.007-2.671-.444-3.418-1.293-1.098-1.259-2.222-2.605-2.906-4.066.378-.081.729-.155 1.098-.209 1.79-.27 3.589-.525 5.388-.78l.855-.122c-.01.303-.01.539.009.774.054.822.126 1.778.233 2.727.081.76.414 1.515 1.035 2.37l.279.39a4.847 4.847 0 01-1.07.175c-.36.027-.756.034-1.269.034h-.234z" fill="#000"/><path d="M42.761 95.549a8.128 8.128 0 01-1.808-.196c-.755-.174-1.205-.619-1.304-1.279-.09-.599-.099-1.218-.108-1.824l-.01-.566c-.017-.626-.017-1.252-.017-1.878v-1.778c2.15.122 6.72.64 8.249.93-.045.296-.1.606-.153.908l-.162.862c-.1.546-.189 1.024-.27 1.508-.117.748-.44 1.461-.962 2.121-.522.666-1.278 1.023-2.384 1.131-.36.04-.729.06-1.07.06z" fill="#000"/></svg><svg fill="none" viewBox="0 0 93 111" id="catalog--lips" xmlns="http://www.w3.org/2000/svg"><g clip-path="url(#bclip0_0_336)" fill="#000"><path d="M18.889 30.55c1.306-.856 2.536-1.68 3.705-2.463 8.662-5.812 14.338-9.631 25.926-9.474 11.264.173 17.017 4.933 22.583 9.535.917.756 1.834 1.518 2.767 2.252 6.082 4.765 12.515 6.271 19.135 4.457C84.041 11.03 66.938.257 60.383.017 54.81-.192 49.941 2.882 46.493 3.078 43.047 3.275 39.6.151 34.145.011 28.687-.13 18.73 6.204 12.313 13.237 6.62 19.48 1.152 32.18 0 34.952c.082.028 8.35 2.52 18.889-4.401zm-4.106-15.678C18.559 10.23 31.855-1.49 43.025 5.358a.799.799 0 01.264 1.081.764.764 0 01-1.06.269C31.986.425 19.526 11.5 15.97 15.874a.758.758 0 01-.593.286.79.79 0 01-.494-.18.795.795 0 01-.1-1.108zM58.275 42.394c-.236.073-.462.146-.697.219 0 0-2.076.761-3.075.935-1.547.442-3.052.812-4.5 1.013a29.7 29.7 0 01-4.173.314c-2.602 0-5.44-.403-9.2-1.484-.587-.084-1.784-.543-1.784-.543a104.967 104.967 0 01-5.961-2.122C19.432 37.069 2.262 37.483.044 37.55 6.549 56.399 19.3 63.56 26.102 65.582c3.354.997 8.52 2.374 15.227 2.878C39.1 57.71 30.46 53.83 30.356 53.784a.79.79 0 01-.406-1.03.767.767 0 011.01-.415c.06.028 3.052 1.372 6.082 4.586 1.938 1.758 3.798 3.97 4.666 6.507 2.201 6.445 1.916 8.981 1.916 15.92 0 13.304-.83 17.621-1.57 21.401-1.159 5.913-.264 10.23 2.53 10.241 3.623.012 2.679-5.857 2.487-8.791-.192-2.928-1.806-5.18-1.603-15.136.126-6.053 0-11.815 0-15.331 0-1.518.335-4.11 1.147-6.568.006-.028.017-.05.022-.079.006-.011.006-.016.011-.028.51-1.702 1.252-3.31 2.333-4.429.297-.308.615-.554.939-.773.78-.577 1.669-.918 2.695-.918.818 0 1.56.201 2.245.526.939.376 1.784.991 2.514 1.865 1.021 1.21 1.73 2.81 2.202 4.49.592 1.77.883 3.54.883 4.833v11.138s-.247 3.611-1.141 7.206c-.84 3.377-.494 7.554 1.674 7.549 1.52-.006 2.366-2.117 1.68-6.076-.752-4.362-.94-5.213-.94-8.774v-9.945s-.076-1.607.182-3.78c.011-.106.027-.207.038-.314.033-.324.088-.638.143-.957.039-.224.077-.448.126-.672.401-2.005 1.11-4.2 2.372-5.997.126-.18.247-.347.373-.515 2.075-3.382 4.457-5.684 4.644-5.863a.755.755 0 011.087.04.792.792 0 01-.038 1.108c-.072.067-5.649 5.443-6.972 11.759a83.22 83.22 0 003.86-.997c17.889-5.129 24.25-23.977 25.437-28.07-1.708.112-11.984.806-20.585 1.607-5.435.52-10.051 1.993-14.124 3.292z"/><path d="M45.934 40.815H34.852v.392c4.797 1.563 8.096 2.106 11.083 2.095v-2.487zM49.798 43.01c2.4-.33 5.012-1.153 7.784-2.038v-.151H47.477v2.43a36.649 36.649 0 002.322-.24zM52.62 60.615c-.977 0-1.811.37-2.541 1.126-1.515 1.568-2.267 4.412-2.64 6.904a73.372 73.372 0 0011.006-1.008c-.396-1.965-1.093-3.925-2.23-5.275-.987-1.176-2.162-1.747-3.595-1.747zM62.797 27.068c.302.437.824.806 1.79.806 1.367 0 2.618.034 3.546-.145-.406-.33-.818-.655-1.235-.974-.027-.023-.055-.04-.082-.062a43.31 43.31 0 00-2.306-1.652l-.56-.37a34.063 34.063 0 00-1.158-.722v3.12h.005zM32.48 23.764v4.279c.67 1.12 2.416 2.766 6.934 2.766 4.704 0 6.29-.991 6.817-2.223v-8.383c-5.615.19-9.7 1.45-13.75 3.561zM48.492 20.18c-.247-.005-.477.006-.724.006v8.792c.724 1.013 2.448 1.763 6.554 1.763 4.517 0 6.263-1.646 6.933-2.766V23.11c-3.37-1.708-7.383-2.85-12.763-2.928zM25.888 27.763c.91.14 2.08.112 3.36.112.855 0 1.371-.297 1.684-.667v-2.603c-1.619.923-3.271 1.982-5.044 3.158z"/></g><defs><clipPath id="bclip0_0_336"><path fill="#fff" d="M0 0h93v111H0z"/></clipPath></defs></svg><svg fill="none" viewBox="0 0 282 282" id="concept--seal" xmlns="http://www.w3.org/2000/svg"><path d="M141 282c77.872 0 141-63.128 141-141S218.872 0 141 0 0 63.128 0 141s63.128 141 141 141z" fill="#000"/><path d="M146.452 33.22l10.041-12.027-8.798-.756.17-2.107 11.826 1.011-.159 1.841-10.041 12.027 9.095.777-.181 2.107-12.123-1.032.17-1.841zM168.148 20.789l10.593 2.639-.51 2.054-8.202-2.043-1.222 4.917 7.13 1.777-.51 2.054-7.131-1.777L167 35.646l8.204 2.044-.511 2.054-10.593-2.64 4.048-16.315zM187.168 26.302l3.996 1.713c3.963 1.703 5.695 4.385 4.387 7.45-1.061 2.491-3.326 3.406-5.683 3.013l2.167 8.184-2.848-1.213-1.837-7.589-2.052-.872-2.455 5.757-2.263-1 6.588-15.443zm-1.062 8.77l1.753.755c2.901 1.246 4.527.543 5.27-1.213.733-1.724.127-3.416-2.773-4.65l-1.753-.746-2.497 5.854zM199.408 41.224c2.902-4.609 6.514-6.312 10.339-3.896 3.803 2.405 3.793 6.269.935 10.803-2.9 4.608-6.493 6.29-10.317 3.874-3.804-2.395-3.794-6.269-.957-10.782zm9.053 5.619c1.509-2.395 3.21-5.758.085-7.738-3.123-1.969-5.419 1.012-6.927 3.406-1.488 2.374-3.188 5.737-.075 7.706 3.113 1.969 5.43-1.011 6.917-3.374zM235.705 59.519l3.135 3.789c2.656 3.214 3.134 6.45.361 8.748-2.774 2.3-5.845 1.256-8.522-1.98l-1.551-1.883-4.76 3.96-1.572-1.906 12.909-10.728zm-4.951 7.322l1.572 1.905c2.009 2.438 3.773 2.555 5.238 1.342 1.445-1.203 1.669-2.98-.34-5.407l-1.572-1.905-4.898 4.065zM247.744 75.196l1.254 2.129-12.623 7.482 4.377 7.418-1.816 1.075-5.632-9.547 14.44-8.557zM258.624 96.323l.977 2.5-13.452 11.666-.977-2.501 3.219-2.704L246 99.186l-4.196.212-.958-2.437 17.778-.638zm-10.52 2.671l1.934 4.939 2.04-1.725 4.632-3.746-5.939.415-2.667.117zM251.834 112.937l.511 2.363c-1.86.532-2.635 2.011-2.115 4.427.478 2.214 1.668 3.48 3.326 3.119 1.275-.277 1.678-1.246 1.88-2.853l.479-3.799c.265-2.129 1.158-4.066 3.538-4.588 2.911-.638 5.004 1.565 5.706 4.79.722 3.32-.372 5.971-3.741 6.737l-.51-2.331c2.307-.628 2.497-2.373 2.147-4.002-.468-2.128-1.668-3.054-3.007-2.756-1.106.244-1.636 1.149-1.807 2.586l-.489 3.8c-.349 2.852-1.221 4.321-3.463 4.81-3.347.735-5.387-1.66-6.13-5.066-.798-3.725.392-6.513 3.675-7.237zM265.339 134.978l-.318-5.651 2.103-.117.776 13.836-2.104.117-.318-5.715-14.642.819-.138-2.469 14.641-.82zM253.024 149.081l-.413 4.097 12.496 1.256.414-4.087 2.104.213-1.074 10.611-2.104-.212.405-4.067-12.496-1.255-.405 4.065-2.103-.213 1.063-10.611 2.113.203zM257.082 166.769c5.494 1.458 7.853 4.65 6.695 9.026-.744 2.787-2.794 5.544-7.173 4.533l.617-2.31c2.443.405 3.942-.681 4.505-2.841.967-3.662-2.125-5.099-5.292-5.939-2.985-.798-6.417-1.086-7.394 2.565-.649 2.448.148 3.863 2.486 4.673l-.616 2.33c-4.135-1.256-4.73-4.586-3.932-7.588 1.19-4.512 4.834-5.855 10.104-4.449zM240.911 199.581l-1.318 2.024c-1.689-.959-3.283-.47-4.632 1.596-1.232 1.893-1.297 3.629.117 4.565 1.094.714 2.071.319 3.346-.66l3.04-2.319c1.699-1.31 3.697-2.033 5.747-.692 2.487 1.628 2.403 4.661.595 7.439-1.858 2.842-4.505 3.917-7.417 2.054l1.298-2.001c2.061 1.203 3.441.117 4.357-1.287 1.19-1.82.998-3.332-.15-4.088-.946-.617-1.965-.362-3.113.522l-3.039 2.32c-2.274 1.745-3.931 2.161-5.854.905-2.869-1.874-2.604-5.013-.702-7.929 2.094-3.172 4.909-4.279 7.725-2.449zM239.02 223.082l-1.656 1.83-5.313-4.821-3.795 4.193 5.313 4.821-1.656 1.832-12.444-11.282 1.658-1.831 5.578 5.066 3.793-4.193-5.578-5.066 1.659-1.831 12.441 11.282zM220.936 229.798c3.411 4.247 3.845 8.216.318 11.058-3.496 2.82-7.151 1.554-10.498-2.629-3.411-4.246-3.826-8.195-.298-11.027 3.497-2.82 7.14-1.553 10.478 2.598zm-8.246 6.758c1.774 2.204 4.399 4.907 7.267 2.597 2.879-2.31.808-5.46-.967-7.673-1.753-2.183-4.377-4.886-7.246-2.576-2.869 2.309-.808 5.459.946 7.652zM209.364 249.084l-4.261 2.436c-3.613 2.066-6.885 1.98-8.67-1.149-1.785-3.129-.223-5.981 3.42-8.068l2.115-1.213-3.059-5.386 2.146-1.224 8.309 14.604zm-6.344-6.152l-2.146 1.224c-2.741 1.563-3.167 3.278-2.221 4.937.925 1.629 2.636 2.161 5.377.597l2.146-1.224-3.156-5.534zM164.493 248.806c5.918-1.192 9.233 2.3 10.147 6.833.913 4.534-.786 9.036-6.715 10.239-5.919 1.192-9.234-2.3-10.147-6.823-.914-4.523.796-9.056 6.715-10.249zM136.336 253.053l-10.403 11.718 8.777 1.021-.244 2.097-11.795-1.372.213-1.832 10.402-11.717-9.074-1.055.244-2.096 12.092 1.406-.212 1.83zM114.256 264.802l-10.508-2.969.574-2.032 8.128 2.298 1.371-4.874-7.077-2.001.574-2.033 7.077 2.001 1.466-5.193-8.129-2.3.574-2.033 10.509 2.969-4.559 16.167zM95.439 258.715l-3.942-1.831c-3.91-1.819-5.557-4.555-4.155-7.588 1.137-2.459 3.432-3.299 5.78-2.831l-1.912-8.248 2.805 1.308 1.605 7.642 2.018.937 2.636-5.673 2.241 1.044-7.076 15.24zm1.328-8.749l-1.721-.798c-2.858-1.331-4.505-.681-5.302 1.044-.787 1.701-.234 3.405 2.624 4.736l1.722.798 2.677-5.78zM83.655 243.411c-3.049 4.523-6.704 6.108-10.455 3.576-3.73-2.523-3.591-6.386-.595-10.835 3.05-4.523 6.683-6.088 10.434-3.556 3.72 2.523 3.592 6.386.616 10.815zm-8.882-5.908c-1.584 2.352-3.38 5.663-.33 7.727 3.06 2.066 5.451-.84 7.034-3.192 1.562-2.321 3.369-5.63.308-7.706-3.05-2.054-5.45.852-7.012 3.171zM47.943 224.018l-3.018-3.885c-2.56-3.288-2.932-6.545-.095-8.758 2.837-2.214 5.875-1.075 8.457 2.246l1.499 1.926 4.887-3.81 1.52 1.947-13.25 10.334zm5.174-7.173l-1.519-1.948c-1.934-2.49-3.698-2.671-5.196-1.501-1.477 1.15-1.764 2.928.17 5.418l1.52 1.948 5.025-3.917zM36.382 207.948l-1.19-2.171 12.857-7.078-4.144-7.547 1.849-1.021 5.334 9.717-14.706 8.1zM26.172 186.533l-.904-2.522 13.813-11.249.904 2.522-3.305 2.607 2.21 6.173 4.208-.084.882 2.469-17.808.084zm10.604-2.34l-1.785-4.992-2.093 1.671-4.75 3.597 5.95-.234 2.678-.042zM33.472 170.122l-.436-2.374c1.88-.468 2.699-1.926 2.253-4.353-.415-2.224-1.562-3.533-3.23-3.213-1.286.234-1.711 1.191-1.966 2.787l-.606 3.779c-.33 2.118-1.285 4.023-3.676 4.47-2.922.543-4.952-1.713-5.547-4.971-.616-3.341.563-5.948 3.942-6.608l.436 2.34c-2.316.555-2.571 2.3-2.263 3.939.393 2.138 1.572 3.097 2.922 2.852 1.115-.202 1.668-1.096 1.891-2.532l.606-3.779c.446-2.841 1.35-4.278 3.602-4.704 3.368-.629 5.334 1.83 5.971 5.257.68 3.736-.605 6.493-3.9 7.11zM20.646 147.676l.15 5.661-2.115.054-.351-13.857 2.114-.053.15 5.715 14.662-.372.064 2.469-14.674.383zM33.386 133.957l.531-4.077-12.442-1.639-.531 4.077-2.094-.277 1.392-10.579 2.094.276-.532 4.045 12.443 1.639.53-4.044 2.094.276-1.392 10.579-2.093-.276zM29.88 116.151c-5.44-1.629-7.704-4.885-6.407-9.228.829-2.767 2.964-5.46 7.31-4.31l-.68 2.288c-2.433-.479-3.953.553-4.59 2.703-1.084 3.63 1.965 5.162 5.1 6.099 2.965.883 6.386 1.288 7.47-2.331.722-2.427-.022-3.863-2.338-4.747l.69-2.309c4.091 1.383 4.58 4.736 3.698 7.705-1.35 4.46-5.036 5.684-10.253 4.13zM47.04 83.86l1.38-1.98c1.658 1.01 3.263.574 4.676-1.458 1.296-1.863 1.413-3.587.021-4.566-1.073-.745-2.05-.383-3.368.553l-3.113 2.225c-1.743 1.255-3.762 1.915-5.76.51-2.443-1.702-2.252-4.736-.36-7.45 1.944-2.788 4.632-3.778 7.48-1.83l-1.36 1.958c-2.02-1.266-3.443-.224-4.389 1.15-1.243 1.788-1.105 3.299.022 4.087.924.649 1.955.425 3.134-.426l3.113-2.225c2.327-1.681 3.995-2.043 5.876-.723 2.805 1.958 2.444 5.087.457 7.95-2.2 3.129-5.058 4.15-7.81 2.224zM49.653 60.434l1.71-1.778 5.165 4.981 3.92-4.076-5.164-4.98 1.711-1.778 12.081 11.665-1.71 1.777-5.42-5.226-3.92 4.077 5.419 5.225-1.711 1.778-12.081-11.665zM67.93 54.261c-3.284-4.353-3.592-8.333.02-11.058 3.592-2.714 7.194-1.33 10.424 2.948 3.284 4.353 3.57 8.313-.032 11.037-3.591 2.704-7.204 1.33-10.413-2.927zm8.457-6.503c-1.7-2.256-4.24-5.044-7.193-2.82-2.943 2.224-.978 5.439.733 7.695 1.679 2.235 4.229 5.023 7.172 2.788 2.944-2.203.967-5.417-.712-7.663zM80.096 35.348l4.335-2.31c3.677-1.958 6.95-1.766 8.628 1.416 1.69 3.182.043 5.982-3.666 7.95l-2.157 1.15 2.901 5.481-2.178 1.16-7.863-14.847zm6.152 6.343l2.178-1.16c2.784-1.479 3.262-3.182 2.37-4.874-.882-1.66-2.572-2.246-5.356-.766l-2.178 1.16 2.986 5.64zM124.924 37.009c-5.95 1.022-9.159-2.576-9.935-7.131-.775-4.555 1.063-9.004 7.013-10.026 5.95-1.022 9.159 2.576 9.935 7.131.776 4.555-1.063 9.015-7.013 10.026zM115.328 150.616a5.454 5.454 0 00-.591-1.337 2.944 2.944 0 01-.332-1.565c0-.384.166-.653-.207-.892a3.522 3.522 0 00-.716-.259l-3.858-1.203a9.65 9.65 0 002.79 4.541 27.345 27.345 0 002.821 3.805 3.03 3.03 0 01-.27-1.162c-.02-.622.457-1.275.363-1.928z" fill="#fff"/><path d="M109.458 144.075c1.514.466 3.039.923 4.543 1.41a2.518 2.518 0 011.369.819c.394.56.166 1.036.197 1.71 0 1.037.933 1.742.944 2.768 0 .622-.394 1.161-.374 1.773.085.563.314 1.095.664 1.544a10.502 10.502 0 005.384 3.836 26.886 26.886 0 008.017 1.244 3.3 3.3 0 002.863-1.254 7.386 7.386 0 001.12-2.208 10.193 10.193 0 01-3.381-3.173c-1.203-1.658-2.313-3.369-3.464-5.058a10.929 10.929 0 00-1.774-2.426 7.202 7.202 0 00-2.562-.975 18.661 18.661 0 00-2.697-.456c-.757-.072-1.525 0-2.271-.186a2.418 2.418 0 01-2.075-2.395c0-1.14.654-2.187.685-3.317 0-.685-.436-.85-.809-1.358-.488-.664-.125-1.348-.114-2.074a22.76 22.76 0 00-.426-2.747c-.093-.767-.124-1.555-.145-2.332 0-3.11.353-6.459-1.462-9.175-.426-.642.622-1.244 1.037-.601 1.981 2.954 1.556 6.603 1.628 9.973.007.854.076 1.706.208 2.55.179.767.297 1.547.352 2.332 0 .446-.28 1.13 0 1.483.28.352.436.383.602.642.248.397.368.86.342 1.327 0 1.099-.612 2.074-.674 3.193-.093 1.586 1.826 1.4 2.956 1.493 1.776.126 3.524.514 5.186 1.151 1.701.674 2.521 2.405 3.496 3.835.975 1.431 2.012 3.017 3.112 4.479a8.41 8.41 0 003.422 3.037.596.596 0 01.28.674c-.663 2.239-1.991 4.582-4.615 4.789a22.802 22.802 0 01-4.367-.28 23.558 23.558 0 01-3.993-.767c-.446-.134-.892-.29-1.328-.456a31.295 31.295 0 006.223 3.027c7.728 2.789 17.426 1.452 24.386-2.83a33.328 33.328 0 0013.214-15.716h-.135l-.819-.103a1.456 1.456 0 01-1.203-.798 4.681 4.681 0 01-.861-3.805c.684-2.146 2.998-3.006 4.854-3.929a.613.613 0 01.374-.062 28.389 28.389 0 00-.695-9.838 10.657 10.657 0 00-2.531-6.427c0-.083-.073-.156-.114-.228a24.148 24.148 0 00-1.235-1.918 21.958 21.958 0 00-1.846-2.27 26.614 26.614 0 00-17.042-7.952c0 .073.063.104.073.177a.29.29 0 000 .093 18.385 18.385 0 00-2.51-.518 9.88 9.88 0 00-4.211.321 31.149 31.149 0 00-11.296 3.296 26.093 26.093 0 00-9.045 5.837 29.797 29.797 0 00-8.298 16.462 11.915 11.915 0 00-.497 3.297c.006.628.055 1.254.145 1.876a10.456 10.456 0 000 1.97c.111 1.39.419 2.758.913 4.063.072.384.134.778.197 1.151a.575.575 0 01.083 0zm41.842-13.477c.438.936.785 1.911 1.037 2.913a27.32 27.32 0 01.799 3.411 15.039 15.039 0 01-.094 5.816c-.394 1.648-1.244 3.949-3.06 4.509-1.815.56-3.557-.798-4.626-2.146a15.54 15.54 0 00-1.877-2.166 10.684 10.684 0 00-2.438-1.379c-1.545-.726-3.723-1.659-4.045-3.535a7.1 7.1 0 01.384-2.851c.196-.78.489-1.532.871-2.239a4.495 4.495 0 011.629-1.742c.84-.466 1.836-.508 2.707-.912 1.577-.736 3.112-2.011 4.916-1.793a4.427 4.427 0 011.65.176 3.821 3.821 0 012.178 1.97l-.031-.032zm-28.555-18.939c-.073-.757 1.141-.757 1.213 0 .218 2.26-.83 4.416-.633 6.655.277 1.18.663 2.332 1.152 3.442.268 1.108.428 2.24.477 3.379.035 1.022.16 2.038.373 3.038.104.414.27.943.799.912.405-.057.8-.172 1.172-.342a6.78 6.78 0 003.651-3.442c.716-1.565.768-3.67 2.624-4.416a3.122 3.122 0 012.49.28 2.633 2.633 0 002.51-.166 16.05 16.05 0 012.303-1.213 6.583 6.583 0 012.914-.166c2.324.249 4.637.508 6.96.747a6.942 6.942 0 003.112-.197 7.43 7.43 0 001.97-1.265 11.423 11.423 0 013.973-2.644.604.604 0 01.635.859.599.599 0 01-.313.292c-1.857.539-3.112 2.208-4.626 3.245-2.075 1.379-4.471.943-6.836.694l-3.609-.394a11.736 11.736 0 00-3.444-.134c-1.732.373-2.998 2.073-4.896 1.783-.861-.114-1.825-.964-2.697-.643-.871.321-1.296 1.648-1.555 2.54a8.12 8.12 0 01-2.925 4.312c-1.1.83-3.517 2.208-4.751 1.037a4.019 4.019 0 01-.809-2.446c-.145-1.037-.187-2.167-.29-3.245a11.225 11.225 0 00-.872-3.338 7.342 7.342 0 01-.736-2.955c0-2.135.861-4.115.664-6.209z" fill="#fff"/><path d="M163.238 138.705c-.477 1.037.104 2.167.664 3.11l.104.176h.197c.156 0 .322 0 .477.063.259.018.515.056.768.114a31.602 31.602 0 001.607-6.303c-.653.321-1.307.642-1.939 1.036a3.984 3.984 0 00-1.878 1.804zM147.835 129.697a.652.652 0 01-.249 0h-.114c-.425 0-.861.103-1.275.165h-.146c-1.11.363-2.074 1.161-3.174 1.607-.857.218-1.696.502-2.51.85a3.82 3.82 0 00-1.359 1.742 11.56 11.56 0 00-.632 2.073 2.509 2.509 0 00.249 2.416c1.037 1.212 2.79 1.7 4.149 2.425a8.33 8.33 0 012.002 1.421 23.666 23.666 0 011.514 1.845c.85 1.037 2.541 2.685 3.973 1.534a5.188 5.188 0 001.348-2.249c.28-.76.468-1.55.56-2.354.154-1.7.042-3.414-.332-5.079a20.119 20.119 0 00-1.473-4.769 2.758 2.758 0 00-1.722-1.596 3.589 3.589 0 00-.809-.031z" fill="#fff"/><path d="M174.907 127.945a51.716 51.716 0 00-.902-5.433c-.093-.497-.145-1.119-.28-1.658a22.592 22.592 0 00-.633-1.991 43.017 43.017 0 00-4.149-8.521 10.652 10.652 0 00-.498-.715 184.857 184.857 0 003.641-4.24c.736-.871-.456-2.073-1.297-1.275a4399.39 4399.39 0 00-9.957 9.817 24.35 24.35 0 011.846 2.27 608.949 608.949 0 004.232-4.789 130.136 130.136 0 011.805 3.359 1.187 1.187 0 00.612.642c.28.571.56 1.141.819 1.721a28.215 28.215 0 011.494 4.054c.073.248.135.508.187.767l.062.331v.239c.083.891.384 1.783.539 2.674a35.814 35.814 0 01-2.655 20.578 39.806 39.806 0 01-13.277 16.452 25.943 25.943 0 01-7.717 3.815 37.718 37.718 0 01-29.706-3.753 34.014 34.014 0 01-1.411-.964c1.037-.892 2.002-1.793 2.998-2.695a12.914 12.914 0 01-2.469-1.421c-2.5 2.602-5.01 5.184-7.499 7.796a.801.801 0 00-.22.274.797.797 0 000 .685.795.795 0 00.22.275.868.868 0 00.648.294.857.857 0 00.649-.294l4.076-3.556a37.057 37.057 0 0020.558 6.863h3.444a90.471 90.471 0 001.431 15.425c-4.204.201-8.398.494-12.582.881h-.238a.362.362 0 00-.125.094.497.497 0 000 .632.406.406 0 00.311.187 60.722 60.722 0 0028.058-1.203.526.526 0 00.251-.932.525.525 0 00-.386-.105c-4.391-.041-8.775.028-13.152.208a1.04 1.04 0 00.072-.373c.062-5.07 0-10.149-.342-15.208a30.407 30.407 0 0011.856-3.743 41.166 41.166 0 0015.122-15.974 39.12 39.12 0 004.564-21.49z" fill="#fff"/></svg><svg fill="none" viewBox="0 0 127 64" id="footer--bite" xmlns="http://www.w3.org/2000/svg"><path d="M20.334.8h3.165v14.9h12.026v1.6H20.334V.8zM37.582 9.1v-.2c0-4.7 5.222-8.4 12.818-8.4 7.754 0 12.818 3.7 12.818 8.4v.2c0 4.7-5.064 8.4-12.66 8.4-7.754 0-12.976-3.8-12.976-8.4zM59.895 9v-.2c0-3.7-3.482-6.7-9.495-6.7-6.013 0-9.653 2.8-9.653 6.8v.2c0 4 4.273 6.7 9.653 6.7 5.855 0 9.495-2.7 9.495-6.8zM65.275.8h3.165l7.754 14.6L83.947.8h3.007l-9.02 16.5h-3.798L65.275.8zM91.385.8h15.191v1.6H94.55V8h9.652v1.6h-9.653v6h12.66v1.6H91.226V.8h.159zM.554 32.6c0-5.5 6.962-9.6 15.033-9.6 8.387 0 14.241 3.6 14.241 8.2 0 4.2-3.797 5.7-6.646 5.7-2.848 0-3.797-.8-4.114-1.9-.95 1.2-3.165 2.1-5.222 2.1-3.481 0-5.697-1.5-5.697-3.9 0-3 3.165-5.2 6.963-5.2 2.532 0 3.798.8 4.273 1.5l.316-1.3h3.007L21.6 33.8c-.317 1.2.316 1.8 1.582 1.8 2.058 0 3.957-1.3 3.957-4.3 0-4-4.273-6.7-11.552-6.7-7.121 0-12.185 3.2-12.185 8 0 4.1 3.956 7.6 11.868 7.6 3.798 0 6.172-.6 8.229-1.7h2.848c-1.899 1.9-6.013 3.3-11.077 3.3C5.776 41.7.554 37.4.554 32.6zm18.514-.6c0-1.7-1.424-2.5-3.64-2.5-2.215 0-4.114 1.3-4.114 3.7 0 1.6 1.425 2.5 3.323 2.5 2.058 0 4.431-1.3 4.431-3.7zM35.367 23.9h15.35v1.6H38.531v5.9h9.494V33h-9.494v7.4h-3.165V23.9zM55.464 23.9h3.165v16.5h-3.165V23.9zM65.433 23.9h7.912c5.064 0 9.178 1.3 9.178 4.6v.1c0 2.7-2.848 4.1-6.488 4.5l8.07 7.3h-3.48l-7.755-7.2h-3.956v7.2H65.75l-.316-16.5zm8.07 7.7c3.798 0 5.697-1 5.697-3.1v-.1c0-2.2-2.215-3-5.697-3h-4.905v6.1h4.905v.1zM86.48 35.4h3.006c.474 2 1.582 3.6 6.962 3.6 3.324 0 6.014-1.3 6.014-3.1s-1.425-2.7-6.33-3.2c-5.539-.5-8.704-1.6-8.704-4.6 0-2.5 3.482-4.5 8.387-4.5 5.222 0 8.546 1.6 9.02 4.6h-2.848c-.633-2.1-2.532-2.9-6.172-2.9-3.64 0-5.38 1.1-5.38 2.7s.95 2.4 6.33 3c5.855.6 8.861 1.7 8.861 4.8 0 2.8-3.797 4.9-9.02 4.9-7.12-.1-9.652-2.5-10.127-5.3zM115.437 25.5h-7.595v-1.6h18.356v1.6h-7.596v14.9h-3.165V25.5zM29.196 47h7.912c4.905 0 8.387 1 8.387 4.3v.1c0 1.5-.95 2.8-3.956 3.5 3.797.6 5.221 1.8 5.221 4v.1c0 3.1-3.322 4.6-8.544 4.6h-9.02V47zm7.753 7.2c3.798 0 5.223-.9 5.223-2.9v-.1c0-1.9-1.741-2.6-5.38-2.6h-4.748v5.6h4.906zm1.108 7.8c3.798 0 5.539-1.1 5.539-3.1v-.1c0-2-1.741-3-6.013-3h-5.38V62h5.854zM52.14 47h3.166v16.5H52.14V47zM67.332 48.6h-7.596V47h18.356v1.6h-7.595v14.9h-3.165V48.6zM82.523 47h15.191v1.6H85.688v5.6h9.653v1.6h-9.653v6h12.66v1.6H82.364V47h.158z" fill="#000"/></svg><svg fill="none" viewBox="0 0 93 92" id="footer--cactus" xmlns="http://www.w3.org/2000/svg"><path d="M91.464 53.7c.633-5.4 1.108-9.1 0-15.3-1.108-6.2-3.956-10.2-9.495-10.2-5.538 0-7.12 3.5-7.595 8.2-.475 4.8-.633 16.5-1.108 21.6-.475 5.2-4.906 5.9-12.976 5.9-.158-2.8.633-11.1-1.266-21.3-1.899-10.2-4.272-17.7-4.589-28.3C54.12 3.6 47.79.6 45.257.6 42.725.6 35.13-.5 34.022 9.1c-1.108 9.7-3.323 18.7-4.43 34.4-12.818.4-12.818-2.7-13.135-7.6-.316-4.9 0-15.7 0-15.7.158-6.9-4.272-9.1-9.653-9.8-5.38-.6-6.171 1.1-6.171 5.2s.633 17.1 1.266 26c.633 8.9 5.064 11.8 9.97 13.2 4.905 1.4 18.355-.9 18.355-.9s1.266 27.6 1.9 35.2c-3.166 0-6.172 0-9.337.1-5.539.1-11.077.2-16.774.3-.791 0-1.74 0-2.532.3-.95.3-.633 1.4.475 1.4 23.42.5 46.84 1.1 70.26.5 1.898 0 3.956-.2 5.538-.8.633-.2.316-1-.317-1-5.538-.2-11.235-.3-16.773-.5-.317-1.8-.95-5.5-1.583-10.7 13.926-2.1 24.528-4.9 28.167-7.5 3.798-2.5 1.583-12.2 2.216-17.5zM13.767 16.1c1.74 3.6 1.266 7.9 1.108 17.3-.159 9 3.006 10.1 4.43 10.5 1.9.6 3.64.7 6.014.9.316 0 .633.2.79.4-3.322 0-6.962.4-8.86-1.6-1.583-1.7-2.058-3.8-2.532-5.7-.792-3.2-1.108-6.3-1.425-9.5-.316-3-.474-6-.633-9 0-1.5-.316-3.1-.95-4.6-.474-.9-1.265-1.8-1.898-2.6 1.266.2 2.69 1.3 3.956 3.9zm-5.222-3.9c.158 0 .158-.1.317-.1 1.424 1.8 2.531 3.4 3.006 5.6.317 1.8.158 3.7.317 5.6.158 3.5.633 7 1.107 10.5.475 3 .633 6.6 2.849 9.4 2.215 2.8 5.696 2.6 10.127 2.6l-.158.1c-.633.3-1.424.6-2.057.8-3.64-.2-6.805-.7-8.704-3.1-1.107-1.3-1.74-2.9-2.057-4.4-.95-3-1.582-6-1.582-8.9-.317-5.6.95-12.5-3.798-17.6.158-.2.317-.4.633-.5zM14.4 46.4c-5.222-2.5-4.273-10-4.905-15.2-.475-5.2-.792-12.1-.633-14.5 0-.6 0-1.1-.159-1.6 3.64 6.1.633 13.5 2.216 19.7.633 3 1.266 6.1 3.165 8.9 1.74 2.3 4.43 3 7.753 3.3-2.215.6-4.905.6-7.437-.6zm40.51-7.5c1.108 6.5.95 17.4 1.74 23.3.633 5.9 3.007 17 3.64 22.3.317 3 .475 4.3-.475 4.9-1.424-4.6-2.057-9.4-2.848-14.1-.791-4.9-1.266-9.9-1.899-14.8-.633-4.7-1.266-9.4-1.582-14.1-.158-1.7 0-3.4 0-5.1 0-2.4-.633-4.7-.791-7.1-.317-4.1-.792-8.2-1.266-12.3-.317-4-.317-8.1-.633-12.1.633 2.7 1.107 6 1.107 8.5.159 5.5 1.9 14.1 3.007 20.6zm.633 47.4c-.475-2.5-1.266-5-1.424-7.6-.317-3.7-.475-7.3-.791-11l-.95-10.5c-.791-9.2-1.582-18.5-2.215-27.7-.475-8.3-1.424-16.6-1.424-24.8.316.2.474.6.79 1 .475 4.6.317 9.2.792 13.8.475 4 1.108 8 1.266 12 .158 4.3 1.107 8.5.95 12.7-.159 4.9.949 9.9 1.424 14.8.632 5.2 1.107 10.4 2.057 15.6.79 4.9 1.424 10 3.006 14.9-.791 0-1.74 0-2.532-.1-.79-.9-.79-2-.95-3.1zM47.789 4.4c0 3.1.316 6.3.475 9.4.316 4 .158 8 .474 12 .475 4.6.792 9.1 1.108 13.7.791 9 1.424 18 2.216 27 .316 4.1.633 8.2.79 12.3.159 2.4.792 4.6 1.267 7 .316 1 0 2.8.633 3.7h-1.266c-.475-2-.95-4-1.424-5.9-.633-2.7-.159-5.3-.475-8-.475-3.3-1.424-6.5-1.424-9.8 0-3.8.316-7.8-.317-11.6-1.266-7.7-1.107-15.3-1.74-23-.792-8-.95-16-1.108-24 .158-1.6.316-2.5.316-2.5.159-.2.317-.3.475-.3zm-1.424 9.4c.158 4.7.316 9.3.633 14 .475 7.9.475 15.9 1.582 23.8.633 4.2.791 8.3.791 12.5 0 3.3.633 6.6 1.266 9.9.475 2.5.159 5.1.475 7.6.317 2.6 1.108 5.2 1.74 7.7h-.949c-.79-.4-.95-1-1.107-1.6-.159-1.2-4.906-37.6-5.38-52.3-.317-7.6.316-15.6.949-21.6zm37.978 47.3c-.633-5.4.316-12.4.791-18.5.475-6.2-.475-8.4-1.74-10.6-.317-.5-.792-.9-.95-1.3 1.424.8 2.532 2 3.165 3.5.633 1.6.633 3.3.633 4.9l-.475 32.1c-.158 0-.316.1-.316.1s-.475-4.8-1.108-10.2zm2.373 9.7l.475-31.8c0-1.6 0-3.4-.633-5-.633-1.7-2.057-3.2-3.956-4.1.158-.1.158-.1.317-.1.158-.1.316-.1.633-.1 2.057 1.4 3.481 3.4 4.272 5.6.791 2.6.475 5.3.317 7.8v.6c-.791 8.7-.791 17.5.158 26.2-.791.4-1.266.7-1.583.9zm3.007-22.5c-.316 6-.475 11.4 0 16.9.158 1.6-.158 2.8-.791 3.7-.791-8.3-.791-16.8-.158-25.1v-.6c.316-2.6.474-5.4-.317-8-.633-1.9-1.74-3.6-3.165-5 1.266.6 2.374 1.8 3.165 3.7 1.266 3.3 1.583 8.4 1.266 14.4z" fill="#000"/></svg><svg viewBox="0 0 36 25" id="footer--discover" xmlns="http://www.w3.org/2000/svg"><g clip-path="url(#fclip0_0_30)"><path d="M4.89 10.563c0 .553-.187 1.01-.562 1.367-.302.283-.766.424-1.39.424h-.266v-3.58h.265c.636 0 1.1.145 1.391.44.375.335.563.785.563 1.35H4.89zm27.75-1.058c0 .564-.333.847-1 .847h-.296V8.708h.312c.657 0 .985.266.985.797h-.001zM5.938 10.563c0-.803-.26-1.457-.78-1.96-.522-.506-1.193-.758-2.016-.758H1.656v5.42h1.485c.77 0 1.39-.206 1.859-.619a2.666 2.666 0 00.938-2.083zm.47 2.702h1.015v-5.42H6.406v5.42h.002zm5-1.644c0-.434-.107-.77-.321-1.009-.214-.239-.607-.467-1.18-.684-.302-.108-.508-.21-.617-.309a.48.48 0 01-.164-.374c0-.174.07-.318.21-.432a.84.84 0 01.54-.17c.302 0 .578.146.828.44l.531-.717a2.158 2.158 0 00-1.53-.602c-.46 0-.845.15-1.157.447a1.46 1.46 0 00-.469 1.1c0 .38.094.68.281.902.188.223.521.42 1 .594.386.141.62.244.704.31.197.13.296.314.296.553a.742.742 0 01-.477.713.759.759 0 01-.304.052c-.5 0-.87-.239-1.11-.716l-.655.65c.458.695 1.057 1.043 1.796 1.043.532 0 .964-.166 1.297-.497.334-.33.5-.762.5-1.294h.001zm4.343 1.465v-1.253c-.385.401-.792.602-1.219.602-.51 0-.93-.176-1.258-.53-.328-.352-.492-.8-.492-1.342 0-.52.164-.963.492-1.326a1.568 1.568 0 011.211-.546c.448 0 .87.207 1.266.62V8.056a2.685 2.685 0 00-2.316-.12 2.64 2.64 0 00-.894.616c-.537.548-.806 1.218-.806 2.01 0 .792.266 1.462.797 2.01a2.615 2.615 0 001.953.822c.438 0 .86-.103 1.266-.31v.001zM35 22.916V14.34c-.677.434-1.43.89-2.258 1.367-.828.478-2.065 1.113-3.71 1.905a74.694 74.694 0 01-5.15 2.238c-1.786.7-3.96 1.43-6.523 2.19-2.562.76-5.187 1.4-7.875 1.92H34c.27 0 .505-.104.703-.31a1.02 1.02 0 00.297-.732v-.002zm-13.297-12.32c0-.814-.276-1.509-.828-2.084-.552-.575-1.219-.862-2-.862-.781 0-1.448.287-2 .862s-.828 1.27-.828 2.084c0 .813.276 1.508.828 2.083.552.575 1.219.863 2 .863.781 0 1.448-.288 2-.863s.828-1.27.828-2.083zm2.375 2.816l2.25-5.567h-1.11l-1.405 3.646-1.391-3.646h-1.11l2.22 5.567h.546zm2.703-.147h2.875v-.912h-1.86V10.89h1.798v-.912h-1.797V8.773h1.86v-.928H26.78v5.42h.001zm6.11 0h1.25L32.5 10.986c.792-.173 1.188-.683 1.188-1.53 0-.51-.162-.906-.485-1.188-.323-.282-.776-.423-1.36-.423h-1.515v5.42h1.016V11.1h.14l1.407 2.165zM36 2.181V22.82c0 .608-.2 1.123-.602 1.546a1.938 1.938 0 01-1.46.635H2.061c-.572 0-1.06-.212-1.46-.635C.2 23.942 0 23.427 0 22.82V2.181C0 1.573.2 1.058.602.635A1.938 1.938 0 012.062 0h31.875c.573 0 1.06.212 1.461.635.401.423.602.938.602 1.546z"/></g><defs><clipPath id="fclip0_0_30"><path d="M0 0h36v25H0z"/></clipPath></defs></svg><svg fill="none" viewBox="0 0 168 50" id="footer--enjoy" xmlns="http://www.w3.org/2000/svg"><path d="M.191.1H3.04l1.266 7 .632 4.1 3.007-6.8h2.69l3.007 6.8.633-4.1 1.107-7h2.849l-2.532 12.7H11.9L9.053 6.6l-2.849 6.2H2.407L.19.1zM27.567 11.2h4.905V1.7h-4.905V.1h12.66v1.6H35.32v9.5h4.905v1.6H27.567v-1.6zM52.411.1h3.007v11.1h10.285v1.6H52.57L52.411.1zM77.255.1h5.855c6.488 0 8.387 2.7 8.387 6.3 0 3.7-1.9 6.5-8.387 6.5h-5.855V.1zm3.007 11.1h2.848c2.374 0 3.798-.7 4.43-1.6.634-.9.792-2.1.792-3.2 0-.5 0-1.1-.158-1.6 0-.6-.317-1.1-.633-1.5-.633-.9-2.057-1.6-4.431-1.6h-2.848v9.5zM8.262 30.9c-4.906 0-7.596-1.2-7.596-3.5 0-1.5 1.266-2.6 3.481-3-1.74-.5-3.006-1.4-3.006-2.9 0-2.3 3.006-3.6 7.12-3.6 3.482 0 6.805.8 7.28 3.7h-2.849c-.158-.8-.474-1.4-1.266-1.7-.79-.3-1.74-.5-3.006-.5-1.266 0-2.216.2-3.007.5-.791.3-1.266.8-1.266 1.6 0 1.5 1.741 2.1 4.906 2.1h9.652v1.5H15.7v5.8H8.262zm4.272-1.5v-4.2H8.736c-1.424 0-2.69.2-3.64.5-.949.3-1.423.9-1.423 1.7 0 1.5 2.057 2 4.905 2h3.956zM57.316 25.8l-7.753-7.7h3.323l3.006 3 3.007 3.2 3.007-3.2 3.006-3h3.323l-7.754 7.7v5.1h-3.006v-5.1h-.159zM76.78 26.4v-8.2h3.007v8.2c0 1.1.316 1.9.95 2.4.632.4 1.582.7 3.006.7 1.424 0 2.373-.2 3.006-.7.633-.5.95-1.3.95-2.4v-8.2h3.006v8.2c0 1.7-.474 2.9-1.74 3.6-1.108.7-2.849 1.1-5.222 1.1-4.747 0-6.963-1.3-6.963-4.7zM100.991 18.2h3.956l2.216 4.2 1.266 2.8 1.266-2.8 2.215-4.2h3.798v12.7h-2.69v-7.5l.316-3.5-3.956 7.4h-2.215l-3.956-7.4.316 3.5v7.5h-2.69V18.2h.158zM125.835 18.2h3.956l2.216 4.2 1.266 2.8 1.265-2.8 2.216-4.2h3.798v12.7h-2.69v-7.5l.316-3.5-3.956 7.4h-2.215l-3.956-7.4.316 3.5v7.5h-2.69V18.2h.158zM156.534 25.8l-7.754-7.7h3.323l3.007 3 3.007 3.2 3.006-3.2 3.007-3h3.323l-7.754 7.7v5.1h-3.007v-5.1h-.158zM2.881 36.3h12.976v1.6H5.73v3.8h8.703v1.6H5.73v4.1h10.127V49H2.881V36.3zM27.725 36.3h3.956l6.33 10.9-.317-3.7v-7.2h2.69V49H36.43l-6.33-10.9.316 3.7V49h-2.69V36.3zM51.462 44.9c0-.3 0-.6.158-.8h2.848c0 .2-.158.5-.158.8 0 1.7 1.266 2.8 3.956 2.8 3.007 0 4.114-1.2 4.114-3.5v-7.8h3.007v7.9c0 3.3-2.374 5.1-6.963 5.1-4.43-.1-6.962-1.9-6.962-4.5zM75.672 42.7c0-4.1 2.532-6.7 7.913-6.7 2.69 0 4.589.6 5.855 1.8 1.266 1.2 1.898 2.8 1.898 4.8 0 4.2-2.531 6.7-7.912 6.7-5.222 0-7.754-2.5-7.754-6.6zM87.7 46c.633-1 .791-2.2.791-3.3 0-2.2-.475-5-4.905-5-4.431 0-4.748 2.8-4.748 5 0 2.1.475 5 4.748 5 2.215-.1 3.48-.8 4.114-1.7zM107.004 44l-7.753-7.7h3.323l3.006 3 3.007 3.2 3.006-3.2 3.007-3h3.323l-7.754 7.7v5.1h-3.006V44h-.159zM131.215 46.5h3.956V49h-3.956v-2.5zm.475-6.2v-3.9h3.007v4l-.792 4.3h-1.424l-.791-4.4z" fill="#000"/></svg><svg viewBox="0 0 22 22" id="footer--facebook" xmlns="http://www.w3.org/2000/svg"><path d="M22 .159v3.49h-3.998c-1.46 0-2.444.159-2.953.476-.51.317-.764.793-.764 1.428v2.499h7.46l-.993 3.913h-6.467V22H6.493V11.965H0V8.052h6.493V5.169c0-1.639.883-2.91 2.648-3.814C10.907.452 13.258 0 16.194 0 18.69 0 20.625.053 22 .159z"/></svg><svg fill="none" viewBox="0 0 67 106" id="footer--hand" xmlns="http://www.w3.org/2000/svg"><path d="M54.433 105.2c-7.437 0-32.756-1.2-34.655-1.7-.158-.3-.316-.6-.316-.9 0 0-1.108-2.4-1.266-2.9l-.792-1.7c-.474-1-.95-2.1-1.424-3.1-.316-.7-.633-1.3-.95-2-.157-.3-.632-1.3-.632-1.3-.159-.4-.317-.8-.633-1.2-.317-.7-.633-1.3-.95-2-.633-1.3-1.107-2.6-1.74-3.9-.633-1.3-1.266-2.7-1.74-4.1-.317-.8-.634-1.6-.95-2.5-.317-.7-.633-1.4-.95-2-.158-.4-.475-.8-.633-1.3-1.424-3-2.69-6.1-3.64-9.2-.474-1.7-.79-3.3-.949-4.9 0-.9 0-1.8-.158-2.7v-.2c0-1.1 0-2.3-.158-3.4-.159-2.2-.159-4.1-.317-5.9 0-.6-.158-1.3-.158-1.9 0-.4-.158-.9-.158-1.3 0-.7-.159-1.3-.159-2l-.158-2C.79 40 .79 38.8.631 37.7c-.158-2.3-.158-4.4-.317-6.3v-4.8c0-.9.159-1.8.159-2.7 0-.5.158-1 .158-1.5v-.8-.9-.6-.5c.158-.7.158-1.5.316-2.2.158-1 .317-1.7.791-2.4.475-.6.95-.9 1.583-1.1.475-.1.95-.2 1.424-.2.633 0 1.266.1 1.74.4 1.108.5 1.741 1.2 2.058 2.1l.158.6.475 1.5c.158 1.1.316 2 .316 2.9 0 .8.159 1.6.317 2.3 0 .3.158.5.158.8 0 .5.158 1 .158 1.4.159.6.159 1.3.317 1.9.158 1 .316 1.9.633 2.9l.316 1.4c.158.8.317 1.7.475 2.5.316 1.1.475 2.2.95 3.6 0 .1 0 .2-.159.4-.633.8-1.108 1.7-1.266 2.6-.158 1.1-.158 2.2 0 3.4v.6c0 .7.158 1.4.317 2.1.158.8.474 1.7.633 2.5.158.8.316 1.5.633 2.2.316 1.6.95 3.2 1.582 4.7.158.6.475 1.1.633 1.7.316 1.1.791 2 1.108 2.9.158.5.474.9.79 1.3.16.1.16.3.317.4.475.8 1.108 1.7 2.058 2.5 1.107.9 2.531 1.5 4.114 1.7.316 0 .633.1 1.107.1.792 0 1.741-.1 2.532-.4.95-.3 1.741-.6 2.69-.9.159-.1.159-.1.317-.1h.158c.791.2 1.583.4 2.69.5h.791c1.583 0 2.849-.3 4.273-1 1.582-.8 2.69-1.8 3.165-3.2.158-.3.158-.6.316-.9.159-.4.317-.8.475-1.1v-.2c.158.2.475.4.633.6.475.4.791.8 1.266 1.1.633.7 1.266 1.3 1.582 2 .317.6.95 1.1 1.583 1.6.158.1.316.3.474.4.475.4.95.8 1.583 1.2l.158.1s2.057 1 2.849 1.4c.158.1.316.2.632.2h.159c.158 0 .474 0 .633-.1.158-.1.158-.2.158-.3 0-.1-.158-.3-.316-.4l-.634-.3c-.632-.3-1.107-.6-1.74-.9-.633-.3-1.266-.6-1.74-1l-.475-.5-1.425-1.2c-.158-.1-.158-.2-.316-.4 0-.1-.158-.2-.158-.2l-.475-.5c-.317-.5-.791-1-1.266-1.4l-.95-.9c-.316-.2-.474-.5-.79-.7-.634-.6-1.108-1.1-1.583-1.7-.95-1.3-2.532-2.3-4.906-2.8-2.69-.7-5.538-1.4-8.228-2.4-.95-.4-1.583-.7-2.216-1-2.373-1.3-4.114-2.6-5.538-4-.475-.5-.95-1.1-1.266-1.8-.158-.4-.158-.8.158-1.4.317-.5.633-1.1 1.266-1.6l.158.1c.317.2.792.3 1.108.5 1.74.9 3.798 1.6 5.539 2.2.949.3 1.898.6 3.006.9.475.1.95.2 1.266.2.158 0 .475.1.633.1h.317c.474 0 .79-.2.79-.4l.95-2.1c0-.1.158-.2.158-.3 1.266.2 2.532.3 3.798.4.791 0 2.532.1 2.532.1.95 0 2.057.1 3.165.1 1.424.1 2.69.4 3.798 1.1 1.266.7 2.215 1.6 3.323 2.7.316.3.474.6.791.8l1.424 1.5c.633.6 1.266 1.3 2.057 1.8.475.4.95.7 1.583 1l.158.1c.475.3.95.6 1.424.8.633.3 1.108.7 1.74 1.2l.16.1c1.107.9 2.215 1.8 3.164 2.8.95 1 1.424 2 1.74 2.9.317 1 .317 2 .159 3v.6c0 1.4-.317 2.7-.791 4v.2c-.317.7-.475 1.5-.792 2.3-.474 1-.79 1.9-1.266 2.9-.633 1.3-1.107 2.5-1.582 3.7-.316.7-.475 1.4-.791 2.1 0 0-.158.6-.317.9l-.316 1.1c-.317.9-.633 1.8-.791 2.6-.317.9-.475 1.9-.792 2.8l-.316 1.4-.317 1.3c-.316.9-.474 1.7-.79 2.6-.159.8-.317 1.5-.475 2.3l-.159 1.1c0 .2 0 .3-.158.5-.158.6-.316 1.1-.316 1.7 0 .2 0 .4-.159.6v.1c-.316 1.4-.474 2.9-.316 4.7v.3c0 .8-.317.9-1.266.9z" fill="#000"/><path d="M57.756 52.3c-.316-.2-.633-.5-.95-.7-.632-.5-1.265-1.2-1.898-1.9-.95-1.1-2.216-2.2-3.323-3.2-1.108-1-2.532-1.7-4.115-2-.79-.2-1.74-.3-3.006-.4V44v-.9c.158-1.1 0-2.2-.317-3.5-.158-.8-.316-1.5-.316-2.2 0-2.1 0-4.4.316-7v-1.3-.7-1.1s.317-7.5.317-8.1v-1.9c0-1.3 0-2.7.158-4.1.158-1.7.316-3 .791-4.1 0-.1 0-.3.158-.4v-.3c.159-.4.159-.9.317-1.3.316-1.1.475-2.2.95-3.3.158-.5.474-1 .79-1.4.633-.8 1.741-1.3 3.165-1.4.317-.1.633-.1 1.108-.1h.317c.949 0 1.582.3 2.057.9.316.4.633.8.95 1.3.949 1.7.949 3.4 1.107 5.2v5.4c0 1 .158 1.9.316 2.8 0 .4.159.7.159 1.1 0 .3 0 .5.158.8 0 .5.158 1 .158 1.5.158 2.3.317 5.3.475 8.3V32.3c0 .6 0 1.2-.158 1.8 0 .4-.159.8-.159 1.2v2.9c0 .5 0 1-.158 1.5 0 .6-.158 1.3-.158 2v.7c0 1.5-.158 3 0 4.6V48.3l.791 4zM25.158 66.4c-.791 0-1.582-.1-2.373-.3-.633-.1-1.108-.4-1.583-.8-.95-.7-1.582-1.6-2.057-2.4-.791-1.3-1.582-2.6-1.899-4-.316-.8-.633-1.7-.791-2.4l-.95-2.7c-.158-.7-.316-1.3-.474-2-.158-.4-.159-.7-.317-1.1-.158-.4-.158-.8-.316-1.2-.159-.8-.475-1.6-.633-2.4-.475-2.2-.475-4-.158-5.6.158-.8.316-1.4.79-2 .476-.6 1.108-1.1 2.058-1.4.316-.1.791-.1 1.108-.2h1.266c1.424 0 2.531.1 3.64.5.632.2 1.107.4 1.423.7.633.5 1.266 1 1.9 1.6.316.3.474.6.474.9-.317-.1-.791-.1-1.108-.1-.791 0-1.582.1-2.373.4-1.741.6-2.849 1.5-3.323 2.8-.159.4-.317.8-.317 1.2 0 .6.158 1.2.475 1.8.633 1.2 1.899 2.2 3.165 3.1 1.266 1 2.69 1.9 4.272 2.7.158 0 .158.1.158.2v.1c0 .9-.158 1.9-.158 2.8v2.8l-5.38.7c-.475.1-.95.1-1.424.2-.633.1-.95.4-.791.9.316.8.79 1.5 1.265 2.2.633.8 1.425 1.4 2.69 2 .95.5 2.058.6 3.007.6H27.532c.633 0 1.266-.2 1.74-.3l.159.1-.95.3c-.158 0-.316.1-.474.1-1.266.1-2.058.2-2.849.2zM42.565 44.1c-.633 0-1.108 0-1.74-.1-2.375-.1-4.59-.5-6.805-.9l-.317-.1c-1.424-.3-2.69-.5-4.114-.8l-1.582-.3c-.159-.4-.159-.6-.159-.9.475-1.2 1.108-2.2 1.9-3.2.632-.7 1.423-1.2 2.69-1.5 1.107-.3 2.215-.5 3.48-.5 1.108 0 2.216.1 3.482.4.633.1 1.108.4 1.582.8l.159.1c.79.6 1.107 1.3 1.266 2 .158.7.316 1.5.474 2.2l.159.5v2.3h-.475z" fill="#000"/><path d="M33.387 65.7c-.95 0-1.74-.2-2.532-.5-1.424-.7-2.374-1.6-2.532-2.8-.158-.8-.158-1.6-.158-2.4v-1.3c0-.8 0-1.6.158-2.4 0-.5.158-1 .158-1.5v-.7l.159.1c.633.2 1.265.4 1.74.6 2.216.7 4.115 1.3 6.014 1.7.79.1 1.898.4 2.69.8.474.2.79.5.949.7 0 0 .475.5.633.6.158.2.317.4.158.7-.158.9-.474 1.8-.95 2.6-.157.3-.316.5-.474.8-.158.2-.316.5-.475.7-.316.7-1.266 1.2-2.215 1.7-.791.4-1.899.5-2.848.6h-.475zm-3.798-3.9v.7c0 .4.158.7.317 1.1.316.6 1.107 1 1.898 1.2.475.1.792.1 1.108.1h.95c.474 0 .949 0 1.582-.1.95-.1 1.74-.5 2.374-1.2.633-.7.95-1.5 1.107-2.3.159-.7.159-1.4.317-2 .158-.5-.158-.7-.95-.8-2.532-.3-5.063-.5-7.595-.7h-.317c-.791 0-.791.4-.95.6-.157.6-.157 2.5-.157 2.8l.316.6zM33.229 46.4c-.475-.1-.792-.1-.95-.2-1.108-.3-2.215-.6-3.323-1.1l-.791-.3c-.791-.3-1.583-.6-2.215-.8-.792-.3-1.425-.6-2.216-1l-.475-.2c.475-.2.95-.3 1.424-.3h.159c.633 0 1.108.1 1.74.3l2.374.6.475.1c1.266.3 2.373.5 3.64.8l1.107.2-.95 1.9zM25.791 64.7c-1.266 0-2.057-.3-2.69-.9-.791-.8-1.74-1.7-2.215-2.7.316-.1.633-.1.79-.1 1.425-.2 2.85-.3 4.274-.5l.632-.1v.5c0 .5.159 1.2.159 1.8 0 .5.316 1 .79 1.6l.16.3c-.317.1-.476.1-.792.1H25.79z" fill="#000"/><path d="M33.861 63.9c-.474 0-.949 0-1.424-.1-.633-.1-.95-.4-.95-.8s0-.8-.157-1.2v-.4V59c1.74.1 5.222.4 6.488.6 0 .2 0 .4-.159.6l-.158.6c0 .4-.158.7-.158 1-.158.5-.317 1-.791 1.4-.475.4-.95.7-1.9.7h-.79z" fill="#000"/></svg><svg viewBox="0 0 22 22" id="footer--instagram" xmlns="http://www.w3.org/2000/svg"><path d="M14.667 11a3.533 3.533 0 00-1.075-2.592A3.532 3.532 0 0011 7.333a3.533 3.533 0 00-2.592 1.075A3.533 3.533 0 007.333 11c0 1.012.358 1.876 1.075 2.592A3.533 3.533 0 0011 14.667a3.532 3.532 0 002.592-1.075A3.532 3.532 0 0014.667 11zm1.976 0c0 1.566-.549 2.898-1.647 3.996-1.098 1.098-2.43 1.647-3.996 1.647-1.566 0-2.898-.549-3.996-1.647-1.098-1.098-1.647-2.43-1.647-3.996 0-1.566.549-2.898 1.647-3.996C8.102 5.906 9.434 5.357 11 5.357c1.566 0 2.898.549 3.996 1.647 1.098 1.098 1.647 2.43 1.647 3.996zm1.547-5.872c0 .362-.129.673-.387.93a1.27 1.27 0 01-.93.387c-.364 0-.674-.129-.932-.386a1.27 1.27 0 01-.386-.931c0-.363.129-.674.386-.931.258-.258.568-.387.931-.387.363 0 .674.129.931.387.258.257.387.568.387.93zM11 1.977l-1.096-.008a77.772 77.772 0 00-1.51 0c-.345.005-.805.02-1.383.043a11.35 11.35 0 00-1.475.144c-.406.071-.747.16-1.024.265a3.716 3.716 0 00-1.26.83c-.364.363-.64.783-.831 1.26a5.743 5.743 0 00-.265 1.025c-.072.406-.12.897-.144 1.475a53.095 53.095 0 00-.043 1.382c-.004.344-.004.848 0 1.511L1.977 11l-.008 1.096a77.776 77.776 0 000 1.51c.005.345.02.805.043 1.383.024.578.072 1.07.144 1.475.071.406.16.747.265 1.024.19.478.467.898.83 1.26.363.363.783.64 1.26.831.278.105.619.194 1.025.265.406.072.897.12 1.475.144.578.024 1.038.038 1.382.043.344.004.848.004 1.511 0L11 20.023l1.096.008a77.29 77.29 0 001.51 0c.345-.005.805-.02 1.383-.043.578-.024 1.07-.072 1.475-.144.406-.071.747-.16 1.024-.265.478-.19.898-.468 1.26-.83.363-.363.64-.783.831-1.26.105-.278.194-.619.265-1.025.072-.406.12-.897.144-1.475.024-.578.038-1.039.043-1.382a77.29 77.29 0 000-1.511L20.023 11l.008-1.096c.004-.663.004-1.167 0-1.51-.005-.345-.02-.805-.043-1.383a11.34 11.34 0 00-.144-1.475 5.736 5.736 0 00-.265-1.024 3.716 3.716 0 00-.83-1.26 3.716 3.716 0 00-1.26-.831 5.743 5.743 0 00-1.025-.265 11.35 11.35 0 00-1.475-.144 53.1 53.1 0 00-1.382-.043 77.776 77.776 0 00-1.511 0L11 1.977zM22 11c0 2.187-.024 3.7-.072 4.54-.095 1.986-.687 3.524-1.776 4.612-1.088 1.089-2.626 1.68-4.612 1.776-.84.048-2.353.072-4.54.072s-3.7-.024-4.54-.072c-1.986-.095-3.524-.687-4.612-1.776C.759 19.064.168 17.526.072 15.54.024 14.7 0 13.187 0 11s.024-3.7.072-4.54c.095-1.986.687-3.524 1.776-4.612C2.936.759 4.474.168 6.46.072 7.3.024 8.813 0 11 0s3.7.024 4.54.072c1.986.095 3.524.687 4.612 1.776 1.089 1.088 1.68 2.626 1.776 4.612.048.84.072 2.353.072 4.54z"/></svg><svg fill="none" viewBox="0 0 130 97" id="footer--lips" xmlns="http://www.w3.org/2000/svg"><path d="M26.294 27.3c1.9-.7 3.482-1.5 5.223-2.1 12.026-5 19.938-8.3 36.237-8.2 15.666.1 23.736 4.3 31.49 8.2 1.266.7 2.532 1.3 3.798 1.9 8.545 4.1 17.406 5.4 26.743 3.8C117.283 10.3 93.389 1 84.211.8 76.457.6 69.653 3.3 64.905 3.4 60.158 3.6 55.253.9 47.657.8c-7.595-.1-21.52 5.3-30.382 11.4C9.363 17.6 1.767 28.6.026 30.9c0 .2 11.552 2.4 26.268-3.6zM20.44 13.8c5.223-4 23.895-14.1 39.403-8.2.474.2.633.6.316.9-.316.3-.95.4-1.424.2-14.242-5.4-31.648 4.1-36.712 7.9-.158.2-.475.2-.791.2-.159 0-.475-.1-.633-.2-.475-.1-.475-.5-.159-.8zM81.204 37.5c-.316.1-.633.1-.95.2 0 0-2.848.7-4.272.8-2.215.4-4.272.7-6.33.9-1.898.2-3.797.3-5.854.3-3.64 0-7.596-.4-12.818-1.3-.791-.1-2.532-.5-2.532-.5-2.532-.5-5.222-1.1-8.228-1.8C27.086 32.9 3.033 33.3.026 33.4c9.02 16.3 26.901 22.5 36.396 24.2 4.747.9 11.868 2 21.204 2.5-3.164-9.3-15.19-12.6-15.35-12.7-.474-.1-.79-.5-.632-.9.158-.3.791-.5 1.424-.4.158 0 4.273 1.2 8.545 4 2.69 1.5 5.222 3.4 6.488 5.6 3.007 5.6 2.69 7.7 2.69 13.7 0 11.5-1.108 15.2-2.215 18.5-1.583 5.1-.317 8.8 3.481 8.8 5.064 0 3.798-5.1 3.481-7.6-.316-2.5-2.531-4.5-2.215-13.1.158-5.2 0-10.2 0-13.2 0-1.3.475-3.5 1.582-5.7V57c.633-1.5 1.741-2.9 3.324-3.8.474-.3.79-.5 1.266-.7 1.107-.5 2.373-.8 3.797-.8 1.108 0 2.216.2 3.165.5 1.266.3 2.532.9 3.481 1.6 1.425 1 2.374 2.4 3.007 3.9.791 1.5 1.266 3.1 1.266 4.2v9.6s-.317 3.1-1.582 6.2c-1.108 2.9-.633 6.5 2.373 6.5 2.057 0 3.323-1.8 2.374-5.2-1.108-3.8-1.266-4.5-1.266-7.6v-8.6s-.158-1.4.316-3.3v-.3c0-.3.159-.6.159-.8 0-.2.158-.4.158-.6.633-1.7 1.582-3.6 3.323-5.2.158-.1.316-.3.475-.4 2.848-2.9 6.171-4.9 6.488-5.1.474-.3 1.107-.2 1.582 0 .475.3.316.7 0 1-.158.1-7.912 4.7-9.653 10.2 1.74-.3 3.482-.5 5.38-.9 25.003-4.4 33.864-20.7 35.447-24.2-2.374.1-16.774.7-28.642 1.4-7.754.5-14.242 1.8-19.939 2.9z" fill="#000"/><path d="M63.956 36.2H48.448v.3c6.646 1.3 11.236 1.8 15.508 1.8v-2.1zM69.336 38.1c3.323-.3 6.963-1 10.919-1.8v-.1H66.17v2.1c1.108-.1 2.058-.1 3.165-.2zM73.292 53.3c-1.424 0-2.532.3-3.481 1-2.057 1.4-3.165 3.8-3.64 6 4.748 0 9.811-.3 15.35-.9-.633-1.7-1.582-3.4-3.165-4.5-1.424-1.1-3.006-1.6-5.064-1.6zM87.534 24.3c.475.4 1.108.7 2.532.7 1.899 0 3.64 0 4.905-.1-.633-.3-1.107-.6-1.74-.8l-.158-.1c-1.108-.5-2.058-1-3.165-1.4-.317-.1-.475-.2-.791-.3-.475-.2-1.108-.4-1.583-.6v2.6zM45.125 21.5v3.7c.95 1 3.323 2.4 9.653 2.4 6.488 0 8.703-.9 9.494-1.9v-7.2c-7.753.1-13.45 1.1-19.147 3zM67.596 18.4h-.95V26c.95.9 3.481 1.5 9.178 1.5 6.33 0 8.703-1.4 9.653-2.4v-4.2c-4.747-1.5-10.444-2.5-17.881-2.5zM35.947 24.9c1.266.1 2.848.1 4.747.1 1.266 0 1.9-.3 2.374-.6v-2.3c-2.215.9-4.589 1.8-7.12 2.8z" fill="#000"/></svg><svg viewBox="0 0 36 25" id="footer--mastercard" xmlns="http://www.w3.org/2000/svg"><g clip-path="url(#lclip0_0_32)"><path d="M17.484 3.467c-1.333-.923-2.797-1.384-4.39-1.384a7.48 7.48 0 00-3.086.66 7.994 7.994 0 00-2.54 1.765 8.394 8.394 0 00-1.695 2.637 8.308 8.308 0 00-.632 3.207c0 1.128.21 2.202.632 3.222.395.978.97 1.872 1.696 2.637A8.018 8.018 0 0010 17.977c.98.44 2.01.66 3.094.66 1.594 0 3.057-.462 4.39-1.384a8.673 8.673 0 01-2.78-4.322 9.17 9.17 0 01.007-5.151 8.767 8.767 0 012.773-4.313zm.516.39a8.066 8.066 0 00-2.688 4.061 8.544 8.544 0 00-.007 4.891A7.982 7.982 0 0018 16.862a7.982 7.982 0 002.695-4.053 8.544 8.544 0 00-.008-4.89A8.067 8.067 0 0018 3.856v.001zm.516-.39a8.766 8.766 0 012.773 4.321c.495 1.72.497 3.44.008 5.16a8.582 8.582 0 01-2.781 4.305c1.333.922 2.797 1.383 4.39 1.383 1.084 0 2.115-.22 3.094-.66a8.016 8.016 0 002.531-1.765 8.392 8.392 0 001.696-2.637 8.352 8.352 0 00.632-3.222 8.31 8.31 0 00-.632-3.207 8.395 8.395 0 00-1.696-2.637 7.993 7.993 0 00-2.539-1.765 7.489 7.489 0 00-3.086-.66c-1.593 0-3.057.461-4.39 1.384zm11.578 11.751h.11v-.049h-.267v.05h.11v.276h.047v-.277zm.453.277h.062v-.326h-.078l-.093.212-.094-.212h-.078v.326h.047v-.244l.093.211h.063l.078-.211v.244zm-.125 7.161v.033h-.078v-.049h.078v.016zm0 .147h.047l-.063-.082h.032l.015-.016c.01-.01.016-.027.016-.049a.072.072 0 00-.016-.049l-.015-.016h-.141v.212h.047v-.082h.015l.063.082zm-19.719-1.107c0-.206.057-.374.172-.505a.593.593 0 01.469-.195c.187 0 .338.068.453.204a.744.744 0 01.172.496.736.736 0 01-.172.505.574.574 0 01-.453.195.593.593 0 01-.469-.195.736.736 0 01-.172-.505zm7.39-.716c.313 0 .495.173.548.52h-1.094c.052-.347.234-.52.547-.52h-.001zm5.563.716c0-.206.058-.374.172-.505a.574.574 0 01.453-.195c.188 0 .341.068.461.204.12.135.18.3.18.496a.736.736 0 01-.172.505.593.593 0 01-.469.195.573.573 0 01-.453-.195.736.736 0 01-.172-.505zm4.25 0c0-.195.06-.36.18-.497a.587.587 0 01.46-.203c.188 0 .342.068.462.204.12.135.18.3.18.496 0 .206-.06.374-.18.505a.598.598 0 01-.461.195.586.586 0 01-.461-.204.723.723 0 01-.18-.496zm2.469 1.172a.135.135 0 01-.063-.016c-.01 0-.026-.011-.046-.033-.021-.022-.032-.038-.032-.049a.151.151 0 01-.015-.065c0-.032.005-.054.015-.065 0-.022.01-.043.032-.065l.015-.016c.021 0 .032-.006.032-.017.02-.01.04-.016.062-.016.031 0 .052.006.063.016l.062.033.031.065v.016c.01.022.016.038.016.05l-.016.015v.05l-.015.015-.016.033c-.02.022-.042.033-.063.033-.01.01-.03.016-.062.016zm-21.016-.065h.47v-1.384c0-.26-.076-.469-.227-.626-.151-.158-.357-.242-.618-.253-.333 0-.578.13-.734.391-.146-.26-.38-.39-.703-.39a.72.72 0 00-.61.325v-.26H6.47v2.197h.468v-1.221c0-.39.172-.586.516-.586.313 0 .469.195.469.586v1.22h.453v-1.22c0-.39.172-.586.516-.586.312 0 .468.195.468.586v1.22l-.001.001zm2.594 0h.453v-2.198h-.453v.26a.83.83 0 00-.672-.325.973.973 0 00-.75.326c-.198.217-.297.494-.297.83 0 .336.1.613.297.83a.972.972 0 00.75.326c.292 0 .516-.109.672-.326v.277zm2.781-.668c0-.369-.244-.586-.734-.65l-.219-.033c-.24-.044-.36-.12-.36-.228 0-.163.131-.244.392-.244.24 0 .463.06.671.179l.188-.39c-.23-.153-.516-.229-.86-.229-.27 0-.484.066-.64.196a.641.641 0 00-.235.52c0 .359.245.57.735.635l.203.033c.25.043.375.12.375.228 0 .184-.162.276-.484.276-.26 0-.495-.076-.704-.227l-.203.374c.26.184.563.277.907.277.302 0 .539-.066.71-.196a.62.62 0 00.258-.52v-.001zm2.032.554l-.125-.407a.822.822 0 01-.407.114c-.198 0-.297-.12-.297-.358v-.993h.75v-.44h-.75v-.667h-.468v.668h-.438v.439h.438v.993c0 .542.245.814.734.814.2.006.397-.051.563-.163zm1.343-2.149a.97.97 0 00-.75.326c-.198.217-.297.494-.297.83 0 .347.102.627.305.838.203.212.461.318.774.318.343 0 .63-.104.859-.31l-.219-.358a.912.912 0 01-.61.244c-.353 0-.567-.179-.64-.537h1.578v-.195c0-.347-.093-.627-.28-.838a.918.918 0 00-.72-.318zm2.485 0a.597.597 0 00-.547.326v-.26h-.469v2.197h.469v-1.237c0-.38.15-.57.453-.57a.6.6 0 01.281.065l.14-.456a.774.774 0 00-.327-.065zm.468 1.156c0 .336.102.613.305.83.203.217.477.326.82.326.303 0 .553-.087.75-.26l-.218-.391c-.188.14-.37.206-.547.195a.6.6 0 01-.461-.195.716.716 0 01-.18-.505c0-.206.06-.374.18-.505a.598.598 0 01.46-.195c.2 0 .393.07.548.195l.218-.39a1.133 1.133 0 00-.75-.26c-.343 0-.617.108-.82.325-.203.217-.305.494-.305.83zm3.829 1.107h.468v-2.198h-.468v.26a.762.762 0 00-.657-.325.997.997 0 00-.757.326c-.204.217-.305.494-.305.83 0 .336.101.613.305.83a.996.996 0 00.757.326c.292 0 .51-.109.657-.326v.277zm2.078-2.263a.597.597 0 00-.547.326v-.26h-.453v2.197h.453v-1.237c0-.38.15-.57.453-.57a.6.6 0 01.281.065l.14-.456a.71.71 0 00-.327-.065zm2.187 2.263h.453V19.71h-.453v1.156c-.156-.217-.38-.326-.672-.326a.97.97 0 00-.742.334 1.174 1.174 0 00-.305.822c0 .325.102.6.305.822.203.222.45.334.742.334.302 0 .526-.109.672-.326v.277zm1.219-.326l-.031.017h-.047a.242.242 0 00-.063.048c-.03.011-.047.033-.047.065a.235.235 0 00-.015.098c0 .033.005.06.015.082 0 .021.016.043.047.065a.24.24 0 00.063.048c.02.011.047.017.078.017a.21.21 0 00.094-.017c0-.01.01-.021.031-.032l.031-.016a.479.479 0 00.047-.066.188.188 0 00.016-.08.236.236 0 00-.016-.099.484.484 0 01-.047-.065c0-.01-.01-.021-.031-.032l-.031-.017a.203.203 0 01-.047-.008.203.203 0 00-.047-.008zM36 2.083v20.834c0 .564-.198 1.052-.594 1.464-.396.413-.864.619-1.406.619H2c-.542 0-1.01-.206-1.406-.619A2.045 2.045 0 010 22.918V2.083C0 1.52.198 1.031.594.618.99.206 1.458 0 2 0h32c.542 0 1.01.206 1.406.618.396.413.594.901.594 1.465z"/></g><defs><clipPath id="lclip0_0_32"><path d="M0 0h36v25H0z"/></clipPath></defs></svg><svg viewBox="0 0 36 25" id="footer--paypal" xmlns="http://www.w3.org/2000/svg"><g clip-path="url(#mclip0_0_34)"><path d="M11.64 12.663c0 .401-.132.735-.398 1a1.328 1.328 0 01-.976.4c-.302 0-.545-.087-.727-.26-.182-.175-.273-.413-.273-.717 0-.402.13-.74.39-1.017.26-.277.584-.415.969-.415.292 0 .534.09.727.268.192.18.289.426.289.74l-.001.001zm12.266-2.425c0 .455-.114.765-.343.927-.23.163-.573.245-1.032.245l-.5.016.266-1.742c.02-.12.088-.179.203-.179h.281c.23 0 .412.011.547.033a.76.76 0 01.39.203c.126.114.188.28.188.497zm5.485 2.425c0 .39-.133.721-.399.993a1.296 1.296 0 01-.96.406c-.303 0-.548-.086-.735-.26-.188-.173-.281-.412-.281-.716 0-.402.13-.74.39-1.017.26-.277.584-.415.969-.415.292 0 .534.09.727.268.192.18.289.426.289.74v.001zM8.016 9.88c0-.64-.2-1.105-.602-1.392-.401-.288-.924-.431-1.57-.431h-2.5c-.198 0-.308.103-.328.309L2 15.006a.225.225 0 00.047.18.19.19 0 00.156.08h1.188c.208 0 .323-.102.343-.308l.282-1.79a.32.32 0 01.109-.212.474.474 0 01.234-.106c.094-.016.183-.024.266-.024.083 0 .182.005.297.016.114.01.187.016.219.016.895 0 1.599-.263 2.109-.79.51-.526.766-1.255.766-2.188zm4.828 5.078l.64-4.248a.226.226 0 00-.046-.18.19.19 0 00-.157-.08h-1.187c-.146 0-.235.178-.266.536-.281-.434-.776-.65-1.484-.65-.75 0-1.388.292-1.914.878a2.994 2.994 0 00-.79 2.067c0 .64.18 1.15.54 1.53.36.38.84.57 1.445.57.292 0 .594-.065.906-.196.287-.112.544-.29.75-.52-.041.13-.062.244-.062.342 0 .173.068.26.203.26H12.5c.198 0 .313-.103.344-.31v.001zm6.984-4.28a.235.235 0 00-.062-.155c-.042-.05-.089-.074-.141-.074h-1.203c-.115 0-.209.055-.281.163l-1.657 2.539-.687-2.441c-.052-.174-.167-.26-.344-.26h-1.172c-.052 0-.099.024-.14.073a.235.235 0 00-.063.154c0 .022.102.342.305.96l.656 2.002c.234.716.357 1.096.367 1.14-.854 1.215-1.281 1.866-1.281 1.953 0 .14.068.211.203.211h1.203c.115 0 .209-.054.281-.162l3.985-5.99c.02-.022.031-.06.031-.114v.001zm5.938-.798c0-.64-.2-1.105-.602-1.392-.401-.288-.924-.431-1.57-.431h-2.485c-.208 0-.323.103-.343.309l-1.016 6.64a.226.226 0 00.047.18.191.191 0 00.156.08h1.281c.125 0 .209-.07.25-.21l.282-1.889a.32.32 0 01.109-.211.473.473 0 01.234-.106c.094-.016.183-.024.266-.024.083 0 .182.005.297.016.114.01.187.016.219.016.896 0 1.599-.263 2.109-.79.51-.526.766-1.255.766-2.188zm4.828 5.078l.64-4.248a.224.224 0 00-.047-.18.191.191 0 00-.156-.08h-1.187c-.146 0-.235.178-.266.536-.27-.434-.765-.65-1.484-.65-.75 0-1.388.292-1.914.878a2.994 2.994 0 00-.79 2.067c0 .64.18 1.15.54 1.53.36.38.84.57 1.445.57.302 0 .61-.065.922-.196.312-.13.557-.303.734-.52 0 .01-.01.06-.031.146a.928.928 0 00-.031.196c0 .173.067.26.203.26h1.078c.198 0 .313-.103.344-.31v.001zM34 8.3v-.017c0-.151-.068-.227-.203-.227H32.64c-.115 0-.183.06-.203.179l-1.016 6.77-.016.033c0 .054.021.106.063.155a.198.198 0 00.156.073h1.031c.198 0 .308-.103.328-.31L34 8.302V8.3zM6.125 10.48c-.052.38-.188.63-.406.75-.219.119-.532.178-.938.178l-.515.017.265-1.742c.021-.12.089-.179.203-.179h.297c.417 0 .719.063.907.187.187.125.25.388.187.79v-.001zM36 2.084v20.834c0 .564-.198 1.052-.594 1.464-.396.413-.864.619-1.406.619H2c-.542 0-1.01-.206-1.406-.619A2.043 2.043 0 010 22.918V2.083C0 1.52.198 1.031.594.618.99.206 1.458 0 2 0h32c.542 0 1.01.206 1.406.618.396.413.594.901.594 1.465v.001z"/></g><defs><clipPath id="mclip0_0_34"><path d="M0 0h36v25H0z"/></clipPath></defs></svg><svg fill="none" viewBox="0 0 156 44" id="footer--plastic" xmlns="http://www.w3.org/2000/svg"><path d="M50.46.8v1.8H37.324v6.3h10.286v1.8H37.325v8h-3.481V.8h16.615zM59.48 4.6l-4.906-.7.95-1.7 4.746 1.2-.316-3.4h2.848l-.316 3.4 4.589-1.2.95 1.7-4.906.7 3.323 2.8-2.216 1-3.006-3-2.849 3-2.373-1 3.481-2.8zM71.347 9.9v-.2c0-5.3 5.539-9.2 13.45-9.2 5.856 0 10.92 2 11.552 5.9h-3.48c-.792-2.7-3.166-4.1-8.071-4.1-5.855 0-9.811 2.9-9.811 7.4v.2c0 4.6 3.64 7.3 9.81 7.3 4.59 0 7.913-1.5 8.546-4.4h3.165c-.95 4.1-5.539 6.2-11.868 6.2-8.229-.1-13.293-3.6-13.293-9.1zM105.844.8v8.6L118.187.7h3.798l-12.66 8.7 13.293 9.2h-4.115l-12.659-8.8v8.8h-3.481V.8h3.481zM8.525 25.9c5.38 0 9.97 1.5 9.97 5.2v.1c0 3.8-4.59 5.3-9.97 5.3H3.936v7.3H.455V25.9h8.07zm6.488 5.3v-.1c0-2.5-2.373-3.5-6.171-3.5H3.936v7.1h4.906c3.956.1 6.171-1.2 6.171-3.5zM27.514 25.9V42H40.49v1.8H24.033V25.9h3.481zM57.897 25.9l9.652 17.9h-3.48l-2.85-5.2H49.51l-2.69 5.2h-3.322l9.81-17.9h4.59zm2.532 11l-4.906-9.2-4.905 9.2h9.81zM70.873 38.3h3.323c.474 2.1 1.898 3.9 7.595 3.9 3.64 0 6.488-1.4 6.488-3.4s-1.424-2.9-6.962-3.4c-6.014-.6-9.495-1.7-9.495-4.9 0-2.7 3.798-4.9 9.178-4.9 5.697 0 9.178 1.7 9.811 4.9h-3.165c-.633-2.3-2.69-3.2-6.646-3.2s-5.855 1.2-5.855 2.9 1.108 2.7 6.805 3.2c6.33.6 9.652 1.9 9.652 5.2 0 3-4.114 5.3-9.81 5.3-7.755.1-10.445-2.5-10.92-5.6zM94.45 27.6v-1.8h20.097v1.8h-8.228v16.2h-3.482V27.6h-8.386zM123.409 25.9v17.9h-3.482V25.9h3.482zM129.897 34.9v-.2c0-5.3 5.538-9.2 13.45-9.2 5.855 0 10.919 2 11.552 5.9h-3.481c-.792-2.7-3.165-4.1-8.071-4.1-5.855 0-9.811 2.9-9.811 7.4v.2c0 4.6 3.64 7.3 9.811 7.3 4.589 0 7.912-1.5 8.545-4.4h3.165c-.949 4.1-5.538 6.2-11.868 6.2-8.229 0-13.292-3.5-13.292-9.1z" fill="#000"/></svg><svg viewBox="0 0 36 25" id="footer--visa" xmlns="http://www.w3.org/2000/svg"><g clip-path="url(#oclip0_0_28)"><path d="M30.86 14.03h-2.157c.146-.401.49-1.373 1.031-2.913l.047-.147c.042-.109.094-.25.157-.423.051-.14.098-.28.14-.423l.188.895.593 3.01.001.001zM8.296 12.972L7.39 8.171c-.115-.586-.506-.88-1.172-.88H2.03L2 7.504c3.24.857 5.339 2.68 6.297 5.469l-.001-.001zm2.797-5.68l-2.53 7.128-.266-1.449c-.271-.76-.714-1.462-1.328-2.108-.615-.645-1.297-1.126-2.047-1.44l2.11 8.3h2.734l4.078-10.432h-2.75l-.001.001zm2.172 10.449h2.593l1.625-10.45H14.89l-1.625 10.45zm12-10.189a6.108 6.108 0 00-2.328-.44c-1.282 0-2.329.32-3.141.96-.813.641-1.224 1.471-1.235 2.491-.01 1.107.745 2.05 2.266 2.832.5.25.85.472 1.047.668.198.195.297.406.297.634 0 .326-.156.575-.469.749-.312.174-.672.26-1.078.26-.896 0-1.708-.179-2.438-.537l-.343-.179-.36 2.344c.771.369 1.735.553 2.891.553 1.354.011 2.44-.309 3.258-.96.818-.651 1.237-1.519 1.258-2.604 0-1.15-.73-2.094-2.188-2.832-.51-.271-.88-.5-1.11-.684-.228-.184-.343-.39-.343-.618 0-.239.128-.448.383-.627s.622-.268 1.101-.268c.73-.011 1.375.119 1.938.39l.234.13.36-2.262zm6.64-.26h-2c-.677 0-1.13.293-1.36.879l-3.843 9.57h2.719l.547-1.563h3.312c.052.24.157.76.313 1.563H34L31.906 7.29l-.001.002zM36 2.083v20.834c0 .564-.198 1.052-.594 1.464-.396.413-.864.619-1.406.619H2c-.542 0-1.01-.206-1.406-.619A2.045 2.045 0 010 22.918V2.083C0 1.52.198 1.031.594.618.99.206 1.458 0 2 0h32c.542 0 1.01.206 1.406.618.396.413.594.901.594 1.465z"/></g><defs><clipPath id="oclip0_0_28"><path d="M0 0h36v25H0z"/></clipPath></defs></svg><svg fill="none" viewBox="0 0 147 327" id="halva--cart" xmlns="http://www.w3.org/2000/svg"><path d="M17.161 208.465a1.058 1.058 0 01-.215-.955.151.151 0 00.022-.065 6.347 6.347 0 01.16-2.371c.302-1.159.892-2.276 1.354-3.37 1.203-2.876 2.384-5.764 3.598-8.63 2.05-4.873 4.231-9.681 6.443-14.479 1.375-2.972 2.707-6.01 4.22-8.929-.987.021-1.964.043-2.953.053-3.855 3.489-8.065 7.331-11.34 10.251-2.857 2.533-5.767 5.152-7.496 8.553-1.17 2.308-1.74 4.863-2.223 7.406a123.835 123.835 0 00-1.869 15.273H10.9c.526 0 .913.355 1.085.827.258.697.472 1.416.666 2.136.343 1.277.612 2.586.74 3.907.119 1.277.097 2.65-.504 3.81-.784 1.513-2.696 1.877-4.242 2.05-.687.075-1.504.075-2.212-.129.762 2.457 4.059 3.757 6.83 3.219 4.972-.966 4.167-2.168 8.473-11.773.118-.258.226-.548.344-.849a11.374 11.374 0 01-2.76-2.103c-1.02-1.095-1.794-2.415-2.159-3.832zM9.633 167.122c7.55.355 15.067.462 22.617.215.73-.022 1.46-.022 2.19-.043.076-.01.14-.021.216-.01.021 0 .032-.011.043-.011.193 0 .386 0 .58.011 11.383-.28 22.778-.076 34.15.3 1.02-2.372 2.02-4.755 3.029-7.137 3.254-7.664 6.809-15.23 10.804-22.539 1.59-2.92 3.04-5.893 6.035-7.599 3.018-1.707 6.691-1.879 9.977-.849 3.104.977 5.992 2.963 7.743 5.732 2.04 3.22 1.365 6.515.666 10.046-1.385 7.019-3.286 13.985-5.273 20.886 1.182.376 2.481.451 3.705.558 2.223.204 4.446.333 6.669.429 7.55.355 15.068.462 22.617.215 1.063-.032 2.138-.042 3.201-.064.085-.097.172-.193.268-.28 4.339-3.841 6.648-9.004 7.84-14.521V119.2c-.441-4.015-.945-8.018-1.407-12.021-1.299-11.151-1.579-22.142-.376-33.337.429-3.992 1.074-7.942 1.783-11.88V0H44.117C37.877.45 31.65.998 25.41 1.46a3.684 3.684 0 01-.601.236c-6.852 1.889-14.348.408-20.899 2.383C1.815 7.878.634 12.236 0 16.647v149.681c.967.204 1.987.268 2.953.365 2.223.204 4.457.322 6.68.429zm90.919-80.711c.033.01.301.085.333.085.172.065.355.13.515.204.011 0 .291.15.323.162.15.085.29.182.429.279.774.536 1.44 1.062 1.955 1.749.247.322.419.655.569 1.041.032.075.043.108.054.118 0 .021.01.065.032.14l.129.58c.14.633.279 1.287.473 1.899-.011.43-.033.848-.076 1.267a14.278 14.278 0 01-1.03 3.8 8.725 8.725 0 011.739-.205c.258.172.548.3.859.376 1.139.268 2.352 1.073 3.308 1.825.58.45 1.289 1.084 1.782 1.674.398 1.287.237 2.704-.3 3.971-.215.29-.44.568-.688.837-.311.354-.515.537-.966.944a23.094 23.094 0 01-2.696 2.061c-.193.129-.397.258-.601.387-.096.064-.462.279-.516.322-2.416 1.406-5.015 2.135-7.7 2.865-1.868.505-3.694 1.192-5.616 1.471-1.901.278-3.759 0-5.585.698-.032.01-.064.031-.096.042-.215 0-.419.011-.634 0-.72.537-2.051.118-1.911-1.03a46.862 46.862 0 011.943-8.747c.269-.559.538-1.106.806-1.653 1.02-2.104 1.793-4.282 2.749-6.408 1.096-2.437 2.986-4.38 4.586-6.482.247-.322.354-.655.387-.977.139-.172.278-.322.429-.494a1.91 1.91 0 00.74-.622c.151-.215.323-.408.484-.612a8.59 8.59 0 011.257-.923 4.812 4.812 0 012.491-.655c.022.01.033.01.043.01zM44.965 35.3c.344-.634.57-1.385.548-2.287-.01-.633.032-1.266.065-1.9.279-1.255.622-2.479 1.116-3.638a11.394 11.394 0 013.92-4.883c.033-.01.054-.032.086-.054.086-.021.71-.279.774-.3.43-.14.87-.258 1.31-.355.032-.01.784-.128.87-.15a15.84 15.84 0 011.245-.075c2.299-.064 4.35 0 6.369.58.956.279 1.761.665 2.62 1.191.172.107.236.14.28.161.042.043.118.107.257.225.376.312.741.634 1.096.956 1.192 1.051 2.405 2.103 3.683 3.026.602.838 1.17 1.696 1.675 2.576 1.633 2.877 2.76 5.86 3.502 8.92a20.912 20.912 0 013.092-2.92 6.772 6.772 0 002.213-.515c2.61-1.127 6.153-1.299 9.106-1.235 1.794.043 4.082.258 5.907.677 2.642 1.953 4.393 4.926 5.177 8.189-.011.88-.044 1.75-.119 2.63-.107 1.137-.236 1.813-.526 3.24a56.757 56.757 0 01-1.052 4.187 65.95 65.95 0 01-1.214 3.735 68.935 68.935 0 01-.602 1.631c-.096.258-.482 1.213-.547 1.374-2.674 6.246-6.69 11.452-10.868 16.754-2.91 3.703-5.488 7.684-8.828 11.023-3.297 3.294-7.335 5.43-9.89 9.466-.044.075-.076.15-.119.226-.419.3-.805.633-1.224.922-.612 2.093-3.834 3.21-5.22.762a114.66 114.66 0 01-8.902-19.898c-.29-1.47-.559-2.941-.827-4.39-1.053-5.581-2.717-10.97-3.93-16.507-1.386-6.343-.516-12.87-.473-19.298.01-.988-.258-1.803-.666-2.458 0-.537.043-1.063.096-1.588z" fill="#000"/><path d="M40.283 201.639c-.88-1.255-1.45-2.726-1.45-4.271 0-1.181.376-2.222.817-3.284l3.383-8.115c2.287-5.494 4.628-10.925 7.195-16.249l-12.92-.161c-.654.011-1.31.032-1.965.043-1.976 3.596-3.608 7.406-5.316 11.12-1.933 4.207-3.823 8.424-5.627 12.686 1.686.45 3.372.912 5.058 1.362.59.162.945.806.784 1.385a43.552 43.552 0 01-.709 2.297c-.934 2.834-1.954 5.882-3.683 8.34-.902 1.287-1.869 2.049-3.437 2.339a10.91 10.91 0 01-2.524.194c1.053 1.846 3.115 3.219 5.037 3.831 1.643.515 3.448.644 5.048-.075 1.589-.708 2.824-2.072 3.93-3.37 2.223-2.619 4.253-5.377 6.38-8.072zM52.762 169.473a175.73 175.73 0 00-3.555 7.492c-1.514 3.402-2.867 6.869-4.295 10.303 1.546.472 3.103.945 4.65 1.428.644.193.88.772.784 1.385a22.13 22.13 0 01-.355 1.835c-.547 2.447-1.331 5.065-2.856 7.094-.784 1.052-1.794 1.996-3.104 2.318a5.038 5.038 0 01-.977.118 9.064 9.064 0 002.438 1.739c6.014-5.903 11.501-12.278 15.958-19.577 2.717-4.443 4.94-9.079 7.013-13.791-5.24-.183-10.47-.291-15.7-.344z" fill="#000"/><path d="M110.754 169.269c-2.868-.161-6.207-.065-8.967-.976l-1.643 5.667c-1.364 4.711-3.007 9.337-4.833 13.888a317.862 317.862 0 01-2.588 6.247c-1.053 2.5-2.889 4.797-4.382 7.062-6.765 10.282-12.801 21.004-18.697 31.801-.698 1.278-2.642.14-1.944-1.137.161-.301.333-.602.494-.902a808.483 808.483 0 018.516-15.176c4.05-7.041 8.495-13.771 12.866-20.608 1.3-2.028 2.116-4.325 3.018-6.547a184.444 184.444 0 002.438-6.257c1.686-4.615 3.029-9.306 4.328-14.038 1.256-4.573 2.577-9.124 3.791-13.706 1.192-4.508 2.459-9.124 3.018-13.76.794-6.569-7.776-10.851-13.338-9.521-1.698.409-3.427 1.31-4.586 2.641-.924 1.062-1.58 2.469-2.267 3.692-1.879 3.338-3.608 6.751-5.283 10.186-3.576 7.33-6.583 14.843-9.827 22.314-3.221 7.426-7.077 14.575-11.845 21.122-9.107 12.471-21.242 22.142-33.077 31.877-.269.225-.57.289-.849.268-8.71 8.64-13.026 15.488-14.423 25.416C7.84 269.021 7.604 271.693 7.421 327l60.773-9.414c-1.052-50.981.892-38.809 16.571-51.538 5.262-4.272 36.31-24.396 39.789-30.213 4.94-8.265 4.887-9.714 4.65-19.33l-4.027-46.753c-.44 0-.891 0-1.332-.011-4.371-.096-8.73-.225-13.091-.472zm-39.66 17.355c.28-.515 1.052-.73 1.546-.408.73.473 1.493.891 2.277 1.267.161.075.312.139.472.214.011.011.033.011.044.022.085.032.182.075.268.107.333.129.666.236 1.01.322.15.043.3.075.461.097h.022c.085 0 .161.01.247.021.064 0 .3-.032.376-.021.064-.011.128-.032.204-.054.6-.203 1.213.237 1.385.784.194.601-.226 1.191-.784 1.384-1.514.515-3.275-.214-4.65-.837a18.37 18.37 0 01-2.47-1.352c-.537-.355-.709-.977-.408-1.546zm27.418-52.366l1.546.526c.601.204 1.128.558 1.718.956 1.321.88 2.051 2.286 2.116 4.056.032 1.02-.172 2.018-.365 2.973l-.076.376c-.096.483-.257.945-.429 1.428l-.526 1.61c-.291.686-1.761 5.656-2.503 6.955-.257.461-.751 1.309-1.922.922a13.122 13.122 0 01-.42-.16c-4.005-1.772-7.914-3.543-11.63-5.732-1.138-.665-1.331-1.288-.772-2.511.676-1.482 1.45-3.166 2.18-4.852.901-2.071 2.147-3.832 3.704-5.258 1.622-1.482 3.212-2.104 4.854-1.901.913.108 1.794.366 2.525.612zm-29.373 57.797c.237.236.505.451.763.665.032.022.053.044.086.065 0 0 .129.097.16.118.162.118.334.236.495.354.376.258.752.494 1.149.709 1.88 1.051 4.07 1.684 6.293 1.244.602-.118 1.214.162 1.386.784.15.558-.194 1.266-.784 1.384-3.984.784-8.291-.922-11.137-3.734-1.042-1.02.558-2.619 1.59-1.589z" fill="#000"/><path d="M90.178 140.452c-.408.869-.826 1.727-1.31 2.715l-.752 1.545a56.19 56.19 0 00-.773 1.642c1.976 1.256 8.087 4.336 11.04 5.56l1.096-3.338c.386-1.18.762-2.351 1.127-3.531l.333-1.063c.366-1.137.73-2.318.977-3.488.269-1.288-.096-2.329-1.042-3.005-.719-.516-1.503-.902-2.416-1.202-.483-.161-1.01-.29-1.557-.398-1.621-.3-2.91.022-4.049 1.031a10.22 10.22 0 00-2.674 3.532zM19.6 207.028a8.072 8.072 0 001.6.011c.278-.022.558-.076.837-.129.204-.044.408-.108.623-.151-.011 0 .075-.022.129-.042a3.32 3.32 0 00.214-.119c.033-.021.054-.032.086-.054l.011-.01c.172-.15.333-.322.494-.494.193-.214.226-.279.44-.59.183-.268.344-.537.505-.816.688-1.202 1.246-2.479 1.75-3.767a63.33 63.33 0 001.45-4.229c-1.729-.462-3.458-.934-5.176-1.395-.032-.011-.043-.022-.075-.033l-4.06 11.538c.355.14.784.237 1.171.28zM6.83 221.517c-.01 0-.032-.011-.032 0 0 0 .032.01.075.021h-.01c-.011-.011-.022-.011-.033-.021zM6.894 221.549c-.01 0-.02 0-.032-.011.129.075.086.043.032.011z" fill="#000"/><path d="M6.83 221.517c.022 0 .044.01.065.021.15.043.419.118.44.129.065.011.312.032.022.011.064 0 .118.011.182.021.172.011.344.021.516.011.462-.011.73-.054 1.181-.15.247-.054.494-.118.741-.194.15-.042.3-.096.451-.15.032-.011.118-.054.161-.065.043-.021.076-.042.118-.064.022-.021.043-.043.065-.053.043-.043.054-.043.064-.054.011-.011 0-.022.022-.053.043-.076.086-.162.14-.247.01-.044.032-.086.042-.14l.097-.354c.01-.043.032-.215.054-.279 0-.075.021-.247.021-.301.011-.257.022-.504.011-.762-.01-.322-.032-.633-.065-.945-.01-.064-.01-.139-.021-.203 0-.011-.01-.075-.01-.108-.011-.042-.044-.289-.054-.354-.215-1.288-.559-2.554-.956-3.8H6.83c-.022 0-.033-.01-.054-.01l-.387 7.932c.108.021.28.064.44.161zM6.862 221.538c.01.011.021.011.032.011-.021-.011-.043-.022-.064-.022.01 0 .021 0 .032.011zM43.108 189.072l-2.492 9.197a.702.702 0 01.28.108c.182.129.375.247.58.365.064.032.354.182.407.214.269.108.559.183.849.237.064 0 .193.011.247.011.096 0 .43-.055.333-.022.096-.022.182-.033.279-.064.075-.022.15-.054.215-.076.204-.118.397-.225.59-.364.054-.044.161-.14.204-.162.097-.096.194-.182.29-.289.097-.097.183-.204.28-.311.043-.054.064-.076.075-.087.01-.01.021-.031.064-.096.172-.247.333-.494.483-.752.15-.267.301-.536.44-.804.065-.14.14-.28.205-.419.021-.054.096-.225.129-.29.021-.053.086-.204.086-.225.021-.054.042-.118.064-.172.054-.15.108-.29.161-.44.097-.258.183-.526.269-.783.343-1.074.612-2.179.827-3.285-1.633-.504-3.255-.998-4.865-1.491z" fill="#000"/></svg><svg fill="none" viewBox="0 0 20 16" id="hero--vector" xmlns="http://www.w3.org/2000/svg"><path d="M19.77 1.074a1.04 1.04 0 00-.562-.453c-.636-.237-1.524-.13-1.883.348-2.236 2.972-4.298 6.005-6.456 9.003-.263.365-.526.728-.793 1.09-2.539-3.33-4.89-6.728-7.498-10.03-.663-.838-2.75-.46-2.567.49.573 2.96 1.496 3.516 4.542 9.306.277.525 1.784 2.623 2.277 3.063.432.386.862.792 1.353 1.142.78.557 1.97.618 2.87.16.624-.316 1.676-1.785 2.075-2.245 1.529-1.767 2.813-3.857 3.452-4.951 1.273-2.17 2.144-3.962 3.354-6.15.138-.251.049-.54-.165-.773h.001z" fill="#fff"/></svg><svg viewBox="0 0 145 193" id="logo" xmlns="http://www.w3.org/2000/svg"><g clip-path="url(#rclip0_0_7)"><path d="M21.415 62.468l-10.768-8.291 13.423-.195.749-2.358-12.361-8.803c-1.908-1.36-3.283-2.625-3.984-4.06l-.048-.024L7 43.307l.048.024c1.426-1.093 3.404-1.045 5.94.756l7.17 5.081-9.392.096c-2.365 0-4.031-.656-4.901-2.065l-.048-.024-2.437 7.78.047.024c1.424-.704 3.308-.802 5.312-.802h.772l7.508 5.74-9.584-.025c-2.366 0-4.055-.609-4.925-2.044l-.072.024L0 65.656l.048.024c1.425-.705 3.283-.803 5.312-.803h15.306l.748-2.407v-.002zm-4.226-25.313l6.81 4.62c2.148 1.46 2.848 2.287 4.006 4.013l.048.024 3.864-5.739-.048-.024c-1.981-.413-3.116-.803-5.191-2.213l-6.808-4.644c-2.077-1.41-2.85-2.335-3.985-4.037l-.048-.024-3.862 5.738.048.024c1.98.44 3.018.78 5.166 2.262zm8.016-10.894l5.48 6.153c1.713 1.92 2.222 2.942 2.898 4.862l.023.05 10.213-9.192-3.019-5.495-.265.146c.362 2.407.483 6.76-.844 8.048l-2.125 2.164-8.813-9.921c-1.69-1.896-2.196-2.918-2.896-4.863l-.024-.048-5.118 4.62.024.048c1.833.899 2.751 1.484 4.466 3.428zM41.33 12.84l3.164 8.17c.892 2.31 1.013 3.405.942 5.374l.024.048 7.29-2.868c6.857-2.7 9.513-7.538 7.243-13.423-2.27-5.91-7.678-7.514-14.317-4.887-3.283 1.289-4.659 1.944-7.242 2.966l.024.048c1.352 1.41 1.98 2.214 2.873 4.572h-.001zm4.491-6.954c4.443-1.824 7.195.534 9.513 6.468 2.027 5.252 1.906 8.705-2.753 10.529a31.38 31.38 0 01-1.98.657L44.085 6.687c.677-.316 1.545-.73 1.738-.804v.002zm30.444 14.297c3.839.366 7.46-.875 7.871-5.226.362-3.82-2.174-5.716-4.66-7.321C77.135 6.2 74.865 5.01 75.06 2.87c.144-1.557 1.4-2.458 2.993-2.31 1.98.194 3.645 2.041 5.383 5.713l.29-.048-.217-5.107A14.336 14.336 0 0079.405.073c-3.743-.364-7.388.778-7.774 4.84-.338 3.549 2.22 5.3 4.78 6.928 2.27 1.435 4.394 2.676 4.177 5.035-.168 1.702-1.424 2.966-3.549 2.772-2.366-.244-4.201-2.261-6.326-6.761l-.265.049.168 5.472c1.402.827 3.429 1.556 5.65 1.774zm17.696 4.986c5.192 2.53 11.155.584 13.641-4.62 2.487-5.18.362-11.162-4.829-13.69-5.213-2.553-11.177-.512-13.664 4.668-2.51 5.203-.362 11.113 4.854 13.642h-.002zM93.7 13.786c2.39-4.985 5.456-7.976 8.811-6.347 3.356 1.63 2.874 5.91.483 10.895-2.413 4.984-5.456 7.926-8.763 6.322-3.308-1.654-2.922-5.886-.531-10.87zm16.005 22.908c3.959 4.036 7.267 2.625 10.477-.56l4.37-4.351c1.883-1.874 3.187-2.19 5.649-2.482v-.072l-3.645-3.697-.048.048c-.193 2.53-.628 3.77-2.51 5.667l-4.516 4.474c-2.607 2.6-5.601 3.89-8.137 1.313-1.881-1.921-2.027-4.425 1.281-7.732l4.926-4.912c1.833-1.825 2.92-2.458 4.707-3.137l.048-.048-4.878-4.962-.047.024c-.821 1.898-1.304 2.846-3.163 4.693l-4.756 4.742c-3.791 3.77-2.994 7.685.242 10.992zm12.433 5.616c-2.27 1.192-3.38 1.435-5.408 1.63l-.048.024 6.326 12.231 6.035-1.605-.072-.291c-2.391-.243-6.615-1.192-7.557-2.797l-1.57-2.601 11.734-6.152c2.245-1.192 3.356-1.435 5.407-1.63l.049-.024-3.163-6.127-.048.024c-1.328 1.58-2.125 2.31-4.418 3.525l-7.267 3.793zm22.573 19.576c-.748-3.721-2.896-6.881-6.88-6.08-3.477.706-4.394 3.697-5.191 6.638-.7 2.602-1.256 5.01-3.573 5.495-1.666.342-3.235-.509-3.67-2.6-.483-2.36.918-4.694 4.564-8.074l-.121-.242-5.167 1.75c-.363 1.58-.459 3.745-.024 5.934.772 3.816 3.018 6.928 7.267 6.053 3.741-.753 4.78-3.744 5.576-6.613.677-2.675 1.135-5.203 3.236-5.642 1.52-.316 2.752.633 3.066 2.213.386 1.97-.87 4.086-3.863 6.857l.145.267 4.78-1.702c.193-1.312.145-2.795-.145-4.255zM8.088 104.172l11.323.291.048-1.409c-.966-.438-2.004-1.631-2.004-3.333l-1.352-.024c-.048 1.435.531 2.627 1.086 3.113l-9.052-.244-.048 1.606h-.001zm5.287 14.517c3.694.097 5.89-1.289 5.988-4.232.072-2.967-2.053-4.449-5.746-4.547-3.695-.097-5.891 1.289-5.988 4.232-.096 2.966 2.052 4.45 5.746 4.547zm.193-7.199c2.68.074 4.539.756 4.467 2.919-.048 2.188-1.932 2.748-4.612 2.675-2.68-.072-4.538-.73-4.467-2.918.048-2.164 1.932-2.748 4.612-2.674v-.002zM19 128.293c.072-2.965-2.052-4.449-5.745-4.546-3.695-.098-5.891 1.288-5.988 4.231-.072 2.966 2.053 4.45 5.746 4.547 3.693.097 5.915-1.265 5.987-4.232zm-10.43-.267c.049-2.164 1.932-2.747 4.612-2.674 2.68.073 4.54.754 4.466 2.917-.048 2.189-1.93 2.748-4.611 2.675-2.656-.073-4.514-.729-4.466-2.918zm4.492 18.141c-2.39.681-2.753 2.261-2.39 3.573.361 1.314 1.496 2.481 3.885 1.825 2.391-.681 2.753-2.262 2.367-3.599-.338-1.288-1.474-2.456-3.863-1.799h.001zm1.207 4.279c-1.328.365-2.246.122-2.56-.948-.314-1.094.338-1.775 1.69-2.165 1.328-.364 2.245-.121 2.56.948.29 1.071-.362 1.776-1.69 2.165zm7.29-4.766l-12.867-3.842.362 1.313 12.867 3.842-.361-1.313h-.002zm-5.529-8.414c-2.39.681-2.751 2.262-2.365 3.575.362 1.314 1.497 2.48 3.886 1.824 2.39-.681 2.753-2.262 2.39-3.6-.385-1.312-1.521-2.48-3.91-1.799zm2.874 2.092c.314 1.094-.338 1.775-1.69 2.164-1.329.365-2.245.122-2.56-.949-.313-1.094.338-1.775 1.69-2.163 1.328-.39 2.246-.147 2.56.948zm11.202 22.055l-2.198-2.797-8.884 7.076.99 1.241 3.307-2.627 1.208 1.532c1.81 2.31 3.742 2.869 5.625 1.386 1.884-1.483 1.762-3.501-.048-5.811zm-.966 4.547c-1.159.924-2.198.803-3.573-.973l-1.183-1.508 3.476-2.771 1.183 1.507c1.377 1.775 1.256 2.82.096 3.745h.001zm12.457 6.444l-4.321 5.617c-1.4 1.8-2.608 1.897-4.105.729-1.496-1.191-1.713-2.383-.313-4.182l4.346-5.618-1.256-.972-4.49 5.836c-1.81 2.335-1.256 4.378.893 6.055 2.148 1.678 4.249 1.702 6.036-.632l4.49-5.837-1.28-.996zm8.958 4.937l-3.26-1.411-4.49 10.504 1.449.632 1.666-3.914 1.98.851 1.206 5.155 1.785.778-1.35-5.52c1.69.316 3.065-.268 3.79-1.97.966-2.213-.097-3.939-2.776-5.105zm1.303 4.449c-.58 1.362-1.593 1.751-3.62.851l-1.764-.754 1.762-4.109 1.763.754c2.052.923 2.438 1.897 1.86 3.258zm5.818 9.945l7.46 1.265.218-1.338-5.89-.996.627-3.769 4.877.826.216-1.337-4.876-.827.58-3.501 5.89.997.218-1.314-7.46-1.264-1.858 11.258h-.002zm29.189-6.298l-1.328.243c.217 1.119.169 2.116-.096 2.943l-3.043-2.48c1.304-1.168 2.125-2.14 1.884-3.478-.29-1.532-1.69-2.188-3.211-1.896-1.907.364-2.68 1.653-2.415 3.039.194.997 1.039 1.775 1.908 2.48-1.352 1.192-2.51 2.408-2.22 4.038.312 1.774 1.978 2.625 4.175 2.212 1.473-.268 2.535-1.021 3.26-1.945l1.135.924 1.737-.316-2.196-1.776a7.466 7.466 0 00.41-3.988zm-6.832-1.92c-.17-.876.29-1.435 1.23-1.63.821-.146 1.474.268 1.618 1.095.145.753-.048 1.289-1.375 2.455-.797-.656-1.353-1.166-1.474-1.92zm2.413 7.781c-1.544.291-2.461-.268-2.655-1.362-.217-1.142.507-1.92 1.642-2.942l3.403 2.845a3.892 3.892 0 01-2.39 1.459zm19.677-19.016l4.877 7.927-9.416-5.081-1.642 1.021 5.963 9.702 1.28-.802-4.877-7.928 9.416 5.083 1.642-1.021-5.964-9.703-1.279.802zm7.436-6.444l5.263 10.992 1.135-1.192-1.28-2.505 3.476-3.672 2.56 1.168 1.159-1.241-11.154-4.765-1.159 1.215zm7.388 3.088l-2.874 3.015-2.8-5.568 5.674 2.553zm3.5-15.684l-1.183-.729-4.49 7.417 1.159.705 1.833-3.015 8.523 5.228.821-1.362-8.498-5.228 1.835-3.016zm10.067-10.066l-6.952-2.31-.483 1.507 6.712 2.237c2.148.706 2.655 1.824 2.051 3.648-.604 1.823-1.642 2.432-3.814 1.702l-6.712-2.213-.483 1.508 6.953 2.31c2.8.924 4.515-.267 5.36-2.87.821-2.601.145-4.596-2.632-5.519zm-2.003-15.247c-2.391-.17-3.646 1.411-3.839 4.353l-.242 3.55 11.3.753.095-1.58-4.2-.267.145-2.165 4.419-2.869.119-1.945-4.707 3.112c-.266-1.701-1.256-2.821-3.09-2.942zm1.786 6.712l-4.418-.293.121-1.92c.145-2.262.917-2.943 2.414-2.846 1.448.097 2.148.924 2.005 3.137l-.122 1.922zm-5.263-15.198l11.226 4.595.048-1.629-2.607-.996.121-5.059 2.655-.875.049-1.703-11.444 3.989-.048 1.678zm7.484-2.7l-.096 4.159-5.77-2.237 5.866-1.922zm2.801-9.58l-9.971-.267-.048 1.604 11.322.292.193-7.052-1.351-.024-.145 5.447zM76.507 89.825c.193-1.24.362-2.335.435-2.796-3.742-1.727-7.195-3.162-9.343-3.989.387 1.289 2.029 4.012 8.908 6.785zm4.37-23.636c-.506 1.095.049 4.134-1.448 5.422-1.498 1.29-2.463 1.435-2.463 1.435l1.57 13.375c3.596 1.678 7.339 3.55 10.477 5.374-5.577-28.256-5.528-28.23-5.528-28.23s-2.1 1.53-2.607 2.624h-.002zm-9.415 53.983c.531-.268.893-.656 1.038-.875a307.533 307.533 0 01-2.125-5.594l-1.785 1.192c.748 2.626 2.027 5.277 2.872 5.277zm5.552-5.885c-.338-1.142-.917-3.088-1.57-5.276-.457.292-1.061.656-1.447.899.193 1.508 1.11 4.547 1.81 5.083.435-.195.845-.389 1.207-.706z"/><path d="M66.658 118.543c.072.267.096.535.096.803 1.135.68 2.174 1.045 3.066 1.119-1.4-1.631-2.293-4.864-2.486-5.691-.072-.243.048-.511.24-.657l2.368-1.604c-.58-1.606-1.111-3.113-1.425-4.159-1.014-3.405-6.711-19.623-7.75-21.47-.604-1.07-1.57-1.776-2.463-1.825-.675-.024-1.303.317-1.834 1.022-.942 1.312-1.425 5.178-1.038 8.34.314.122.627.268.94.438 2.198 1.24 5.216 4.352 7.172 12.061 1.496 5.835 2.27 8.607 2.68 10.115.241.73.361 1.168.434 1.508zm-2.68-5.228l-2.052 1.702c.53 2.237 1.666 5.422 2.582 5.909a.183.183 0 00.097.024c.217-.121.411-.243.555-.437.363-.438.483-1.046.314-1.703-.072-.34-.192-.754-.386-1.459-.217-.827-.579-2.066-1.11-4.036z"/><path d="M59.56 84.135c.893.39 1.69 1.143 2.269 2.14 1.184 2.067 6.978 18.724 7.87 21.739.507 1.702 1.666 4.838 2.608 7.344.29.048 1.207.17 2.27-.024-1.208-1.726-1.787-5.301-1.811-5.715a.646.646 0 01.265-.536c.363-.243 1.45-.923 2.053-1.288-1.474-4.961-3.164-10.578-3.188-10.675-.048-.121-.024-.244.024-.365-3.862-2.82-7.29-7.343-5.6-14.736v-.024c0-.024.024-.048.024-.072l.072-.146.072-.073c.024-.048.073-.073.12-.097l.025-.024c.024-.025.048-.025.072-.025.049-.024.073-.024.122-.048h.217c.024 0 .024.024.048.024h.048c.435.17.966.364 1.522.583-.096-.292-.17-.535-.266-.803-.604-1.629-1.328-2.674-2.245-3.209-.048-.024-.097-.024-.145-.049-.918-.462-2.053-.487-3.501-.048-3.212.947-3.018 5.155-2.945 6.127z"/><path d="M89.4 93.4c-3.283-1.97-7.412-4.037-11.324-5.86-.12.68-.313 1.921-.506 3.21a.677.677 0 01-.29.437.665.665 0 01-.314.072c-.072 0-.144-.024-.217-.048-5.963-2.286-8.546-4.669-9.681-6.443-.604 8.948 7.557 12.522 11.684 14.298l.605.267a.609.609 0 01.338.705c-1.86 6.809 2.028 8.948 2.075 8.974a.627.627 0 01.266.827c-.095.218-.313.315-.53.315a.637.637 0 01-.29-.072c-.193-.098-4.588-2.505-2.801-9.849l-.145-.048c-1.304-.56-3.114-1.363-4.973-2.505.966 3.209 4.152 13.812 4.95 16.607.071.22 0 .438-.146.608a5.649 5.649 0 01-2.077 1.314c-.024 0-.048.024-.048.024a7.443 7.443 0 01-2.56.438c-.239 0-.457 0-.65-.024.555 1.434.94 2.48.965 2.505.072.145.048.339-.024.485-.024.048-.676 1.41-2.342 1.897-.407.119-.83.177-1.254.17-1.087 0-2.32-.388-3.623-1.118-.096.267-.241.51-.41.73-.24.315-.555.534-.918.729-.024.024-.048.049-.096.073h-.024a3.2 3.2 0 01-1.594.34c-1.472-.049-5.118-.948-6.88-8.365-1.521-6.322-2.197-7.391-3.115-8.365-.217-.243-.217-.631.024-.851.242-.218.628-.218.846.024 1.159 1.241 1.883 2.53 3.427 8.925 1.426 5.91 3.936 7.173 5.313 7.391-1.45-1.969-2.391-6.176-2.391-6.249a.638.638 0 01.193-.607l2.776-2.31c-.41-1.599-.829-3.196-1.254-4.791-1.45-5.69-3.816-9.726-6.615-11.332-1.618-.923-2.922-.827-3.743-.582a3.045 3.045 0 00-1.11.582c-.507.39-.893.974-1.207 1.727a6.75 6.75 0 00-.363 1.167c-.024.073-.048.123-.048.196-.338 1.604-.41 3.743-.241 6.516.144 2.553.772 5.86 1.81 9.945 1.328 5.326 3.33 11.94 5.866 19.915 4.636 14.566 14.414 12.596 14.51 12.572a.627.627 0 01.725.462.627.627 0 01-.459.73c-.024 0-.58.121-1.473.121-1.23 0-3.138-.219-5.239-1.215 0 1.021-.12 8.802-1.666 15.173 5.602 1.046 24.603-6.858 24.603-6.858l3.065-23.781c0 .024 14.124-18.481-1.4-39.199v.001zm-8.62 26.091c-.264.122-6.348 3.258-4.369 11.746a.606.606 0 01-.459.728c-.047 0-.095.026-.145.026-.266 0-.53-.196-.578-.463-2.222-9.459 4.949-13.082 5.02-13.131a.594.594 0 01.797.268.59.59 0 01-.07.683.577.577 0 01-.195.144v-.001zm-5.553-77.205c-1.881 1.095-7.217 3.916-3.355 13.862.99 2.553 1.932 4.45 1.98 7.391.048 2.943-1.207 8.122 2.848 8 4.057-.122 1.69-4.815 3.212-6.905 1.522-2.067 2.003-1.581 2.414-5.495.434-3.916 2.293-1.776 1.883-7.15-.435-5.374-.845-6.906-2.246-8.851-1.4-1.946-4.853-1.946-6.734-.852h-.002z"/></g><defs><clipPath id="rclip0_0_7"><path fill="#fff" d="M0 0h145v193H0z"/></clipPath></defs></svg><svg fill="none" viewBox="0 0 282 282" id="treasures--seal" xmlns="http://www.w3.org/2000/svg"><path d="M141 282c77.872 0 141-63.128 141-141S218.872 0 141 0 0 63.128 0 141s63.128 141 141 141z" fill="#000"/><path d="M145.86 10.65l2.853.27-1.36 16.707 9.78.815-.135 2.445-12.632-1.087 1.494-19.15zM162.566 22.195c1.495-5.976 4.754-9.236 9.78-7.878 5.025 1.223 6.383 5.433 4.89 11.41-1.495 5.975-4.755 9.1-9.78 7.877-4.89-1.358-6.248-5.569-4.89-11.41zm11.953 2.716c.814-3.124 1.357-7.334-2.716-8.42-4.075-.951-5.57 2.987-6.249 6.247-.814 3.124-1.358 7.335 2.717 8.421 3.939.95 5.433-3.124 6.248-6.248zM184.298 17.848l2.716 1.223-.815 10.865-.678 6.384 4.073-4.89 7.2-8.285 2.715 1.087-13.718 15.076-2.852-1.222 1.359-20.238zM205.079 27.356l10.593 6.655-1.222 2.037-8.149-5.16-3.124 4.889 7.062 4.482-1.222 2.037-7.063-4.482-3.26 5.161 8.15 5.162-1.222 2.037-10.595-6.655 10.052-16.163zM227.625 59.68c5.025-4.21 7.062-3.667 8.285-2.173.815.951.95 2.038.407 3.26l1.087-.95 1.494 1.765-8.421 7.063c-1.087.95-1.087 1.765-.407 2.58.679.815 1.493.815 2.58 0l7.47-6.247c2.988-2.445 4.347-4.618 1.63-7.742-1.902-2.31-3.667-2.445-5.16-1.223l-1.63-1.901c1.63-1.358 5.025-2.445 8.692 1.901 4.618 5.433.678 8.829-1.902 11.002l-7.47 6.112c-2.717 2.309-4.89.815-5.976-.408-1.494-1.765-1.087-3.26-.407-4.074-1.63.407-2.853.136-3.94-1.087-1.222-1.766-1.222-3.803 3.668-7.878zm.543 7.607l6.927-5.84c.272-.68.135-1.495-.272-2.174-.815-.95-1.766-.679-5.433 2.31-3.667 2.987-4.075 3.938-3.26 4.889.408.815 1.223 1.086 2.038.815zM260.223 87.525l4.617 11.68-2.309.951-3.668-9.1-5.975 2.309 3.123 8.013-2.173.951-3.123-8.013-7.335 2.988-1.087-2.58 17.93-7.2zM250.85 110.75l.951 4.618 13.99-3.124-.951-4.618 2.308-.543 2.582 11.816-2.309.544-.951-4.482-13.99 3.123.951 4.483-2.309.543-2.58-11.817 2.308-.543zM270.953 127.456l.27 4.889c.273 4.89-1.63 8.014-5.297 8.285-3.123.136-5.161-1.629-5.976-4.21l-7.198 6.383-.272-3.531 6.791-5.704-.136-2.581-7.062.407-.136-2.852 19.016-1.086zm-9.508 3.395l.135 2.173c.273 3.532 1.766 4.89 3.939 4.754 2.174-.136 3.532-1.63 3.396-5.161l-.137-2.173-7.333.407zM258.048 145.791l-.27 2.717c-2.173-.135-3.532 1.223-3.803 4.075-.272 2.58.543 4.346 2.58 4.483 1.493.135 2.308-.815 2.988-2.445l1.902-3.94c1.086-2.173 2.716-3.938 5.433-3.667 3.395.272 4.89 3.396 4.482 7.199-.407 3.803-2.445 6.383-6.384 5.976l.272-2.716c2.715.135 3.53-1.767 3.667-3.532.271-2.445-.679-3.938-2.309-4.075-1.223-.135-2.173.68-2.853 2.174l-1.901 3.938c-1.359 2.988-2.852 4.211-5.432 3.94-3.94-.407-5.298-3.667-4.89-7.607.407-4.346 2.716-6.926 6.518-6.52zM265.383 172.549l1.63-6.248 2.31.678-4.075 15.213-2.31-.678 1.63-6.25-16.163-4.21.68-2.716 16.298 4.211zM253.838 207.184l-3.26 5.025c-2.173 3.395-5.433 4.753-8.148 2.853-1.63-1.087-2.174-2.582-1.767-4.483-1.358 1.086-3.531 1.901-5.568.543-2.852-1.765-2.988-5.433-.815-8.828l3.532-5.433 16.026 10.323zm-15.483-6.792l-2.038 2.988c-1.63 2.581-1.087 4.347.408 5.297 1.63 1.087 3.26.543 4.89-2.037l1.9-2.988-5.16-3.26zm7.063 4.754l-1.495 2.309c-1.63 2.445-1.63 4.075 0 5.162 1.495.95 3.125.678 4.754-1.902l1.63-2.445-4.889-3.124zM229.662 213.024l-3.124 3.531 10.594 9.643 3.125-3.531 1.765 1.63-8.15 8.965-1.765-1.63 3.123-3.397-10.593-9.643-3.125 3.396-1.765-1.63 8.15-8.964 1.765 1.63zM222.6 240.188l5.025-4.075 1.494 1.902-12.224 9.915-1.494-1.902 5.026-4.075-10.458-13.038 2.173-1.765 10.458 13.038zM211.191 251.598l-10.867 6.247-1.221-2.037 8.421-4.753-2.853-5.027-7.334 4.212-1.223-2.038 7.335-4.21-2.988-5.297-8.422 4.753-1.221-2.038 10.866-6.247 9.507 16.435zM174.791 264.093c.678 3.395-.952 5.297-3.125 5.705-1.765.407-3.938-.408-4.89-2.445-.135 2.173-1.765 3.803-3.53 4.21-2.038.408-4.347-.679-5.026-4.075-.815-4.075.679-10.73 5.161-16.705 6.655 3.667 10.595 9.235 11.41 13.31zM132.142 271.699l-2.852-.271 1.901-16.571-9.779-1.087.272-2.445 12.495 1.495-2.037 18.879zM115.572 259.746c-1.63 5.977-5.025 8.965-10.051 7.607-4.889-1.359-6.247-5.57-4.482-11.545 1.63-5.977 5.026-8.965 10.051-7.607 4.89 1.359 6.112 5.705 4.482 11.545zm-11.681-3.26c-.814 3.125-1.629 7.335 2.445 8.422 4.075 1.086 5.569-2.852 6.52-5.977.815-3.123 1.63-7.333-2.445-8.421-4.075-1.087-5.705 2.988-6.52 5.976zM93.84 263.278l-2.716-1.222 1.223-10.866.815-6.384-4.21 4.754-7.471 8.013-2.717-1.222 14.126-14.533 2.852 1.358-1.901 20.102zM73.331 253.091l-10.322-6.928 1.358-2.036 8.014 5.433 3.26-4.754-6.928-4.618 1.359-2.038 6.927 4.618 3.395-5.16-8.013-5.433 1.358-2.038 10.187 7.063-10.595 15.891zM51.871 220.086c-5.16 4.074-7.198 3.396-8.285 1.902-.814-1.088-.95-2.038-.271-3.396l-1.087.951-1.358-1.766 8.693-6.79c1.086-.815 1.222-1.767.543-2.582-.68-.815-1.494-.95-2.58 0l-7.743 5.977c-3.124 2.445-4.482 4.482-1.901 7.606 1.901 2.445 3.667 2.58 5.161 1.357l1.494 2.038c-1.765 1.358-5.025 2.309-8.557-2.173-4.346-5.568-.271-8.828 2.174-10.865l7.606-5.977c2.852-2.173 4.89-.679 5.976.679 1.358 1.766.95 3.26.271 4.075 1.63-.272 2.853 0 3.803 1.223 1.087 1.765 1.087 3.667-3.939 7.741zm-.271-7.741l-7.063 5.568c-.271.679-.271 1.494.272 2.173.815.951 1.765.814 5.433-2.173 3.667-2.988 4.21-3.803 3.395-4.753-.543-.68-1.358-.952-2.037-.815zM20.225 191.156l-4.21-11.952 2.309-.815 3.26 9.235 5.975-2.172-2.852-8.15 2.31-.815 2.852 8.15 7.47-2.716.95 2.716-18.064 6.519zM30.276 168.338l-.815-4.617-14.126 2.58.815 4.618-2.308.407-2.174-11.952 2.31-.408.814 4.618 14.126-2.58-.815-4.618 2.309-.408 2.173 11.953-2.31.407zM10.718 150.953l-.136-5.025c-.136-4.89 1.765-8.014 5.568-8.15 3.124-.136 5.162 1.766 5.84 4.483l7.471-6.113.136 3.532-6.927 5.568.136 2.581 7.063-.136.135 2.853-19.286.407zm9.643-3.124v-2.173c-.136-3.668-1.63-4.89-3.803-4.89s-3.531 1.495-3.531 5.025v2.174l7.334-.136zM24.164 133.025l.407-2.716c2.173.135 3.667-1.087 3.94-3.939.27-2.581-.408-4.347-2.31-4.618-1.494-.136-2.309.679-3.124 2.309l-2.037 3.938c-1.087 2.174-2.852 3.939-5.569 3.532-3.395-.408-4.754-3.667-4.346-7.335.543-3.802 2.716-6.247 6.655-5.84l-.407 2.717c-2.717-.272-3.532 1.629-3.803 3.531-.272 2.445.679 3.939 2.173 4.075 1.222.135 2.173-.544 2.988-2.038l2.037-3.939c1.494-2.988 2.988-4.21 5.569-3.803 3.939.544 5.161 3.803 4.618 7.742-.543 4.347-2.988 6.927-6.791 6.384zM17.78 105.996l-1.765 6.248-2.31-.679 4.483-15.076 2.309.679-1.902 6.247 16.027 4.754-.815 2.717-16.027-4.89zM30.412 71.77l3.395-4.89c2.31-3.396 5.569-4.482 8.285-2.716 1.63 1.086 2.038 2.716 1.63 4.482 1.358-1.087 3.532-1.766 5.569-.272 2.716 1.901 2.852 5.569.543 8.964l-3.803 5.433-15.62-11.002zm8.285 2.309l1.63-2.31c1.63-2.309 1.765-3.938.136-5.16-1.359-.951-3.124-.816-4.754 1.63l-1.63 2.444 4.618 3.395zm7.063 4.89l2.037-2.989c1.766-2.58 1.222-4.346-.136-5.297-1.494-1.087-3.26-.543-4.89 1.765l-2.037 3.125 5.026 3.395zM54.86 66.744l3.26-3.395-10.323-9.915-3.26 3.395-1.765-1.63 8.42-8.828 1.766 1.63-3.26 3.395 10.323 9.915 3.26-3.395 1.765 1.63-8.42 8.828-1.766-1.63zM62.737 39.85l-5.161 3.94-1.494-1.902 12.631-9.508 1.494 1.902-5.16 3.939 10.05 13.31-2.309 1.63-10.05-13.31zM74.554 28.85l11.001-5.841 1.087 2.173-8.557 4.482 2.717 5.161 7.47-3.938 1.086 2.173-7.47 3.938 2.852 5.433 8.557-4.482 1.087 2.173-10.866 5.569-8.964-16.842zM111.226 17.44c-.544-3.395 1.222-5.297 3.259-5.568 1.766-.272 3.939.543 4.754 2.58.136-2.173 1.902-3.667 3.667-4.074 2.038-.408 4.347.815 4.89 4.21.679 4.075-1.087 10.73-5.705 16.57-6.383-3.938-10.186-9.643-10.865-13.718zM152.728 190.618c-4.338 0-19.124-1.166-20.269-1.591-.07-.27-.144-.539-.218-.813 0 0-.643-2.303-.77-2.77l-.449-1.642c-.264-.972-.536-1.982-.816-2.968a82.54 82.54 0 00-.56-1.86c-.095-.312-.367-1.187-.367-1.187-.111-.367-.222-.733-.321-1.095-.173-.636-.342-1.271-.511-1.907-.326-1.221-.663-2.48-1.022-3.713-.371-1.276-.7-2.589-1.021-3.856-.194-.766-.392-1.558-.598-2.337-.173-.652-.379-1.3-.577-1.928a56.83 56.83 0 01-.37-1.191 86.54 86.54 0 01-2.101-8.727c-.305-1.638-.474-3.14-.515-4.605-.025-.859-.042-1.722-.058-2.581l-.004-.156a289.251 289.251 0 00-.284-8.819c-.029-.59-.083-1.187-.132-1.768-.037-.421-.074-.817-.103-1.213-.041-.627-.074-1.263-.107-1.877l-.103-1.865c-.062-1.057-.12-2.13-.157-3.183a274.454 274.454 0 01-.148-5.927 117.6 117.6 0 01.041-4.572c.021-.842.066-1.697.111-2.526.025-.463.05-.922.07-1.385.013-.248.017-.497.025-.745.008-.328.016-.606.029-.884.008-.19.029-.383.045-.568.013-.144.029-.287.037-.426l.149-2.113c.061-.909.218-1.629.49-2.265.239-.56.519-.867.898-.998.288-.096.56-.147.807-.147.392 0 .75.126 1.059.375.618.497 1.018 1.174 1.182 2.016l.112.548c.103.484.201.964.259 1.439.115.998.177 1.882.194 2.703.012.745.094 1.486.173 2.197a68.103 68.103 0 01.202 2.11c.049.589.103 1.199.169 1.797.098.918.218 1.844.333 2.741l.169 1.343c.099.774.198 1.574.309 2.357.144 1.015.309 2.092.519 3.397a.5.5 0 01-.053.346 6.927 6.927 0 00-.738 2.475c-.107 1.014-.111 2.075-.024 3.241l.041.59c.045.648.095 1.322.185 1.983.111.799.243 1.608.375 2.391.119.728.231 1.414.33 2.096.218 1.503.556 2.998.881 4.446.124.543.243 1.078.359 1.612a43.98 43.98 0 00.655 2.707c.123.434.288.85.453 1.255.057.138.115.282.169.421.288.745.659 1.612 1.223 2.395.639.884 1.463 1.431 2.447 1.616.206.038.416.059.622.059.507 0 1.014-.113 1.5-.341a20.613 20.613 0 001.565-.837c.099-.059.14-.063.165-.063.025 0 .058.008.095.029.428.223.923.362 1.557.438.152.017.305.025.453.025.878 0 1.706-.307 2.534-.939.96-.732 1.565-1.713 1.862-2.997.066-.291.136-.581.21-.872.095-.391.177-.719.251-1.048.017-.063.029-.126.037-.193.12.176.239.349.363.526.247.358.494.715.725 1.073.408.636.725 1.251.968 1.878.218.56.552 1.044.877 1.486.103.135.198.278.297.417.276.4.556.804.935 1.136a.363.363 0 00.087.08s1.24.973 1.668 1.305c.107.08.223.16.363.181a.531.531 0 00.123.009.538.538 0 00.379-.135.401.401 0 00.124-.307c-.004-.135-.078-.265-.206-.375l-.359-.307c-.321-.274-.65-.556-.984-.817-.35-.274-.713-.581-.981-.972l-.304-.442c-.285-.417-.548-.796-.796-1.175-.074-.109-.127-.231-.185-.362-.037-.076-.07-.152-.107-.227l-.239-.48c-.231-.472-.461-.943-.717-1.373-.173-.294-.383-.581-.564-.833-.153-.211-.309-.43-.449-.653-.338-.534-.659-1.048-.898-1.583-.565-1.267-1.492-2.138-2.843-2.669-1.578-.618-3.25-1.3-4.791-2.252-.544-.337-.96-.635-1.314-.951-1.355-1.208-2.422-2.442-3.267-3.776a6.275 6.275 0 01-.733-1.693c-.103-.37-.087-.779.057-1.279.149-.518.396-1.015.775-1.545l.103.084c.218.151.424.294.622.454 1.034.851 2.204 1.524 3.234 2.122.531.307 1.129.602 1.767.876.256.109.519.168.779.223.123.029.247.055.366.088.058.017.12.026.178.026a.52.52 0 00.506-.396c.202-.682.392-1.364.569-2 .029-.105.049-.206.07-.316.725.198 1.466.329 2.216.384.457.033 1.471.113 1.471.113.597.046 1.207.097 1.812.135.87.059 1.603.396 2.25 1.031.704.695 1.339 1.52 1.94 2.53.157.266.313.535.47.804.292.51.564.977.844 1.432.383.61.783 1.191 1.187 1.722.268.353.581.665.881.968l.116.118c.267.269.552.534.873.808.334.286.647.631 1.013 1.124l.066.088c.635.851 1.29 1.731 1.825 2.669.528.931.8 1.924.993 2.775.21.93.169 1.89.132 2.82l-.025.594a22.438 22.438 0 01-.445 3.805l-.045.177a36.43 36.43 0 01-.486 2.135c-.243.917-.503 1.848-.75 2.744-.329 1.192-.651 2.358-.951 3.507-.173.657-.301 1.33-.425 1.979 0 0-.115.598-.169.85l-.21 1.006c-.173.821-.35 1.667-.502 2.501-.165.888-.318 1.797-.466 2.677l-.231 1.36-.214 1.217c-.144.816-.292 1.633-.416 2.446-.111.724-.202 1.46-.292 2.176l-.132 1.061c-.025.172-.046.324-.074.459-.103.526-.194 1.048-.198 1.599 0 .194-.037.405-.07.607l-.025.139c-.21 1.326-.284 2.732-.226 4.416.004.101 0 .197-.005.29-.103.017-.346.038-.885.038z" fill="#fff"/><path d="M154.664 140.568a10.593 10.593 0 01-.528-.695c-.329-.48-.758-1.12-1.124-1.785-.598-1.078-1.302-2.105-1.92-3.01-.663-.968-1.442-1.583-2.381-1.894-.503-.164-1.051-.27-1.722-.333h-.009v-.076c-.004-.332-.008-.585.005-.846.053-.993-.013-2.054-.206-3.342a15.193 15.193 0 01-.182-2.067c-.024-1.992.037-4.151.186-6.605.024-.396.02-.805.016-1.196-.004-.236-.004-.463-.004-.69.004-.354.012-.712.025-1.066 0 0 .165-7.097.173-7.674.012-.606.02-1.208.029-1.814.016-1.259.037-2.56.09-3.835.066-1.592.202-2.8.437-3.911.029-.135.041-.27.054-.404.008-.114.016-.207.032-.3.071-.42.132-.846.194-1.267.153-1.04.309-2.113.581-3.14.132-.497.297-.96.494-1.377.35-.732.981-1.195 1.875-1.368.202-.03.42-.05.651-.05.074 0 .148.004.222.008.527.03.919.286 1.24.808.223.37.404.762.548 1.192.531 1.6.589 3.254.606 4.946.004.522.008 1.049.008 1.57.004 1.15.008 2.337.045 3.503.029.901.099 1.798.169 2.669.029.337.054.674.078 1.01.021.257.041.51.066.767.046.492.087.951.103 1.401.083 2.16.186 4.997.235 7.835a74.05 74.05 0 01-.004 2.109v.076c-.004.555-.012 1.128-.008 1.696a21.28 21.28 0 01-.079 1.714c-.024.366-.053.741-.07 1.111-.02.526-.028 1.061-.037 1.574-.008.388-.012.779-.024 1.167l-.05 1.439a93.863 93.863 0 00-.062 1.857l-.016.644c-.037 1.41-.074 2.867.016 4.311.017.231.021.467.029.699.008.197.013.37.021.543l.198 4.096zM135.627 153.925c-.428 0-.878-.088-1.384-.269-.338-.122-.643-.366-.931-.75-.536-.707-.894-1.511-1.216-2.273a19.68 19.68 0 01-1.157-3.81c-.157-.774-.33-1.562-.494-2.319-.182-.825-.367-1.68-.532-2.522-.124-.623-.218-1.263-.313-1.877-.054-.346-.103-.682-.157-1.019a48.361 48.361 0 00-.197-1.128 41.242 41.242 0 01-.359-2.244c-.251-2.063-.284-3.76-.099-5.33.087-.745.194-1.36.441-1.941.256-.606.659-1.052 1.203-1.326.206-.105.474-.139.655-.151.256-.021.49-.034.717-.034.803 0 1.487.143 2.093.438.358.173.626.375.824.623.408.509.77.972 1.095 1.465.161.244.239.535.305.85a2.554 2.554 0 00-.663-.088c-.453 0-.914.122-1.401.375-1.013.522-1.652 1.389-1.952 2.652a6.863 6.863 0 00-.194 1.174c-.037.581.128 1.12.313 1.663.387 1.137 1.117 2.042 1.825 2.918a18.671 18.671 0 002.464 2.53c.053.042.074.075.07.193l-.004.106c-.029.875-.058 1.78-.079 2.673-.016.606-.024 1.216-.033 1.823l-.012.816-3.16.703c-.284.063-.572.127-.853.202-.399.11-.572.413-.469.838.185.775.42 1.44.709 2.046.35.737.852 1.372 1.528 1.941.552.463 1.182.526 1.73.526l.218-.004c.095-.004.19-.013.285-.021.074-.009.148-.017.226-.017.4-.017.75-.152 1.051-.299l.086.08c-.181.126-.371.223-.556.32-.086.046-.173.088-.259.135a2.958 2.958 0 01-1.364.332zM145.844 132.809a28.822 28.822 0 00-.985-.059c-1.376-.054-2.714-.471-4.008-.871l-.218-.067c-.804-.249-1.607-.501-2.406-.754l-.927-.29c-.099-.329-.116-.586-.054-.838a12.834 12.834 0 011.117-3.04 3.161 3.161 0 011.557-1.46 4.76 4.76 0 011.99-.434c.646 0 1.314.122 2.039.379.371.13.634.412.935.737l.115.126c.491.522.631 1.212.742 1.941.107.686.185 1.385.264 2.062l.049.434c.021.177.029.375.025.619-.009.412-.021.825-.037 1.259l-.009.273-.189-.017z" fill="#fff"/><path d="M140.488 153.272a2.419 2.419 0 01-1.454-.475c-.861-.619-1.355-1.495-1.512-2.678-.099-.753-.099-1.524-.099-2.273 0-.4 0-.8-.016-1.2-.025-.766.021-1.549.066-2.303.029-.475.058-.951.07-1.422.004-.215.004-.434.004-.666l.107.068c.363.219.7.421 1.042.614 1.269.712 2.361 1.255 3.556 1.604.473.139 1.083.35 1.586.758.259.211.449.429.576.665l.334.602c.119.223.161.417.136.627a14.759 14.759 0 01-.511 2.459c-.078.257-.173.514-.268.762-.09.231-.177.463-.251.699-.227.707-.762 1.183-1.306 1.587-.498.37-1.108.476-1.689.547a2.26 2.26 0 01-.371.025zm-2.274-3.704c-.004.181-.008.353.013.526l.016.139c.037.345.078.703.202 1.044.214.589.606.985 1.137 1.137.235.067.449.13.667.13l.565.004c.268 0 .585-.008.906-.071.569-.114 1.026-.501 1.397-1.179a5.61 5.61 0 00.651-2.185c.061-.648.131-1.301.193-1.877.054-.472-.082-.666-.527-.762-1.467-.325-2.946-.493-4.462-.649-.057-.008-.111-.008-.156-.008-.429 0-.499.341-.536.526-.103.522-.053 2.362-.074 2.623l.008.602zM140.382 134.965c-.239-.076-.421-.13-.594-.194-.679-.244-1.301-.602-1.981-1.01l-.486-.286c-.441-.261-.886-.522-1.314-.8a41.642 41.642 0 01-1.306-.901l-.281-.198c.305-.198.557-.29.816-.307.041-.004.087-.004.132-.004.338 0 .684.08 1.059.248.469.211.96.379 1.429.539l.243.084c.709.244 1.422.484 2.142.728l.68.232-.539 1.869zM135.986 152.305c-.696-.004-1.224-.278-1.565-.808-.503-.788-1.018-1.63-1.331-2.543.173-.051.333-.097.502-.131.82-.168 1.644-.328 2.468-.488l.391-.076c-.004.19-.004.337.005.484.024.514.057 1.112.107 1.705.037.476.189.948.473 1.482l.128.244a1.689 1.689 0 01-.49.11 5.73 5.73 0 01-.581.021h-.107z" fill="#fff"/><path d="M140.674 151.568c-.297 0-.569-.043-.828-.123-.346-.109-.552-.387-.597-.799-.042-.375-.046-.762-.05-1.141l-.004-.354c-.008-.391-.008-.783-.008-1.174v-1.112c.984.076 3.077.4 3.777.581-.02.185-.045.379-.07.569l-.074.538c-.045.341-.086.64-.123.943a3.405 3.405 0 01-.441 1.326c-.239.417-.585.64-1.092.708a3.327 3.327 0 01-.49.038z" fill="#fff"/></svg></svg>